{
  "accessors": [
    {
      "bufferView": 2,
      "componentType": 5126,
      "count": 65532,
      "max": [
        3.8057699203491211,
        0.51033198833465576,
        -0.32687398791313171
      ],
      "min": [
        1.9162219762802124,
        -1.3757139444351196,
        -1.5394320487976074
      ],
      "type": "VEC3"
    },
    {
      "bufferView": 2,
      "byteOffset": 786384,
      "componentType": 5126,
      "count": 65532,
      "max": [
        0.9997485876083374,
        0.99782860279083252,
        0.99958622455596924
      ],
      "min": [
        -0.99992656707763672,
        -0.99988257884979248,
        -0.98940908908843994
      ],
      "type": "VEC3"
    },
    {
      "bufferView": 2,
      "byteOffset": 1572768,
      "componentType": 5126,
      "count": 65532,
      "max": [
        0.65882354974746704,
        0.60000002384185791,
        0.53333336114883423
      ],
      "min": [
        0.08235294371843338,
        0.070588238537311554,
        0.062745101749897003
      ],
      "type": "VEC3"
    },
    {
      "bufferView": 1,
      "componentType": 5126,
      "count": 65532,
      "max": [
        0.18161800503730774,
        0.84669899940490723
      ],
      "min": [
        0.061383001506328583,
        0.3542340099811554
      ],
      "type": "VEC2"
    },
    {
      "bufferView": 0,
      "componentType": 5125,
      "count": 362136,
      "max": [
        65531
      ],
      "min": [
        0
      ],
      "type": "SCALAR"
    },
    {
      "bufferView": 2,
      "byteOffset": 2359152,
      "componentType": 5126,
      "count": 65532,
      "max": [
        4.9566631317138672,
        0.95623600482940674,
        -0.8803820013999939
      ],
      "min": [
        0.96569198369979858,
        -1.9676680564880371,
        -1.5268000364303589
      ],
      "type": "VEC3"
    },
    {
      "bufferView": 2,
      "byteOffset": 3145536,
      "componentType": 5126,
      "count": 65532,
      "max": [
        0.99917995929718018,
        0.99997818470001221,
        0.99999934434890747
      ],
      "min": [
        -0.99990159273147583,
        -0.99952989816665649,
        -0.99959582090377808
      ],
      "type": "VEC3"
    },
    {
      "bufferView": 2,
      "byteOffset": 3931920,
      "componentType": 5126,
      "count": 65532,
      "max": [
        0.70980393886566162,
        0.65882354974746704,
        0.57647061347961426
      ],
      "min": [
        0.086274512112140656,
        0.070588238537311554,
        0.043137256056070328
      ],
      "type": "VEC3"
    },
    {
      "bufferView": 1,
      "byteOffset": 524256,
      "componentType": 5126,
      "count": 65532,
      "max": [
        0.99783599376678467,
        0.99957901239395142
      ],
      "min": [
        0.0024580000899732113,
        0.0037299999967217445
      ],
      "type": "VEC2"
    },
    {
      "bufferView": 0,
      "byteOffset": 1448544,
      "componentType": 5125,
      "count": 302046,
      "max": [
        65531
      ],
      "min": [
        0
      ],
      "type": "SCALAR"
    },
    {
      "bufferView": 2,
      "byteOffset": 4718304,
      "componentType": 5126,
      "count": 65532,
      "max": [
        4.9578180313110352,
        0.9608529806137085,
        -1.3148720264434814
      ],
      "min": [
        0.96789097785949707,
        -1.9850679636001587,
        -1.5533419847488403
      ],
      "type": "VEC3"
    },
    {
      "bufferView": 2,
      "byteOffset": 5504688,
      "componentType": 5126,
      "count": 65532,
      "max": [
        0.99987274408340454,
        0.99989223480224609,
        0.99999934434890747
      ],
      "min": [
        -0.9999510645866394,
        -0.99992460012435913,
        -0.99970990419387817
      ],
      "type": "VEC3"
    },
    {
      "bufferView": 2,
      "byteOffset": 6291072,
      "componentType": 5126,
      "count": 65532,
      "max": [
        0.68235296010971069,
        0.64313727617263794,
        0.56078433990478516
      ],
      "min": [
        0.062745101749897003,
        0.050980392843484879,
        0.039215687662363052
      ],
      "type": "VEC3"
    },
    {
      "bufferView": 1,
      "byteOffset": 1048512,
      "componentType": 5126,
      "count": 65532,
      "max": [
        0.99832397699356079,
        0.99974602460861206
      ],
      "min": [
        0.0020979999098926783,
        0.0037640000227838755
      ],
      "type": "VEC2"
    },
    {
      "bufferView": 0,
      "byteOffset": 2656728,
      "componentType": 5125,
      "count": 282732,
      "max": [
        65531
      ],
      "min": [
        0
      ],
      "type": "SCALAR"
    },
    {
      "bufferView": 2,
      "byteOffset": 7077456,
      "componentType": 5126,
      "count": 31300,
      "max": [
        4.9415631294250488,
        0.94415301084518433,
        -1.2974900007247925
      ],
      "min": [
        0.97741901874542236,
        -1.7683099508285522,
        -1.4518979787826538
      ],
      "type": "VEC3"
    },
    {
      "bufferView": 2,
      "byteOffset": 7453056,
      "componentType": 5126,
      "count": 31300,
      "max": [
        0.99908101558685303,
        0.99967992305755615,
        0.99999934434890747
      ],
      "min": [
        -0.99881601333618164,
        -0.99998760223388672,
        -0.9999244213104248
      ],
      "type": "VEC3"
    },
    {
      "bufferView": 2,
      "byteOffset": 7828656,
      "componentType": 5126,
      "count": 31300,
      "max": [
        0.67843139171600342,
        0.63921570777893066,
        0.56470590829849243
      ],
      "min": [
        0.050980392843484879,
        0.043137256056070328,
        0.039215687662363052
      ],
      "type": "VEC3"
    },
    {
      "bufferView": 1,
      "byteOffset": 1572768,
      "componentType": 5126,
      "count": 31300,
      "max": [
        0.99775999784469604,
        0.99947899580001831
      ],
      "min": [
        0.0021339999511837959,
        0.024915000423789024
      ],
      "type": "VEC2"
    },
    {
      "bufferView": 0,
      "byteOffset": 3787656,
      "componentType": 5125,
      "count": 134049,
      "max": [
        31299
      ],
      "min": [
        0
      ],
      "type": "SCALAR"
    }
  ],
  "asset": {
    "extras": {
      "author": "ianicolo (https://sketchfab.com/ianicolo)",
      "license": "CC-BY-4.0 (http://creativecommons.org/licenses/by/4.0/)",
      "source": "https://sketchfab.com/3d-models/the-great-pyramid-of-giza-4a251113722f4d969b6cf2ca5f35c502",
      "title": "The Great Pyramid of Giza"
    },
    "generator": "Sketchfab-9.94.0",
    "version": "2.0"
  },
  "bufferViews": [
    {
      "buffer": 0,
      "byteLength": 4323852,
      "byteOffset": 0,
      "name": "floatBufferViews",
      "target": 34963
    },
    {
      "buffer": 0,
      "byteLength": 1823168,
      "byteOffset": 4323852,
      "byteStride": 8,
      "name": "floatBufferViews",
      "target": 34962
    },
    {
      "buffer": 0,
      "byteLength": 8204256,
      "byteOffset": 6147020,
      "byteStride": 12,
      "name": "floatBufferViews",
      "target": 34962
    }
  ],
  "buffers": [
    {
      "byteLength": 14351276,
      "uri": "scene.bin"
    }
  ],
  "images": [
    {
      "uri": "textures/mat-0_baseColor.jpeg"
    }
  ],
  "materials": [
    {
      "doubleSided": true,
      "emissiveFactor": [
        0,
        0,
        0
      ],
      "name": "mat-0",
      "pbrMetallicRoughness": {
        "baseColorFactor": [
          1,
          1,
          1,
          1
        ],
        "baseColorTexture": {
          "index": 0,
          "texCoord": 0
        },
        "metallicFactor": 0,
        "roughnessFactor": 1
      }
    }
  ],
  "meshes": [
    {
      "name": "mat-0",
      "primitives": [
        {
          "attributes": {
            "COLOR_0": 2,
            "NORMAL": 1,
            "POSITION": 0,
            "TEXCOORD_0": 3
          },
          "indices": 4,
          "material": 0,
          "mode": 4
        }
      ]
    },
    {
      "name": "mat-0",
      "primitives": [
        {
          "attributes": {
            "COLOR_0": 7,
            "NORMAL": 6,
            "POSITION": 5,
            "TEXCOORD_0": 8
          },
          "indices": 9,
          "material": 0,
          "mode": 4
        }
      ]
    },
    {
      "name": "mat-0",
      "primitives": [
        {
          "attributes": {
            "COLOR_0": 12,
            "NORMAL": 11,
            "POSITION": 10,
            "TEXCOORD_0": 13
          },
          "indices": 14,
          "material": 0,
          "mode": 4
        }
      ]
    },
    {
      "name": "mat-0",
      "primitives": [
        {
          "attributes": {
            "COLOR_0": 17,
            "NORMAL": 16,
            "POSITION": 15,
            "TEXCOORD_0": 18
          },
          "indices": 19,
          "material": 0,
          "mode": 4
        }
      ]
    }
  ],
  "nodes": [
    {
      "children": [
        1
      ],
      "name": "RootNode (gltf orientation matrix)",
      "rotation": [
        -0.70710678118654746,
        -0,
        -0,
        0.70710678118654757
      ]
    },
    {
      "children": [
        2
      ],
      "name": "RootNode (model correction matrix)"
    },
    {
      "children": [
        3
      ],
      "name": "Collada visual scene group"
    },
    {
      "children": [
        4,
        5,
        6,
        7
      ],
      "name": "mesh1"
    },
    {
      "mesh": 0,
      "name": "mat-0"
    },
    {
      "mesh": 1,
      "name": "mat-0"
    },
    {
      "mesh": 2,
      "name": "mat-0"
    },
    {
      "mesh": 3,
      "name": "mat-0"
    }
  ],
  "samplers": [
    {
      "magFilter": 9729,
      "minFilter": 9987,
      "wrapS": 10497,
      "wrapT": 10497
    }
  ],
  "scene": 0,
  "scenes": [
    {
      "name": "OSG_Scene",
      "nodes": [
        0
      ]
    }
  ],
  "textures": [
    {
      "sampler": 0,
      "source": 0
    }
  ]
}

