  <svg viewBox="-203.8976723759332 -83.5387285541743 479.4795783926219 172.24480114262744" xmlns="http://www.w3.org/2000/svg" xmlns:xlink="http://www.w3.org/1999/xlink" version="1.1" class="jsx-2263963463 artboard-inner" style="width: 338px; height: 121.421px; max-height: 100%;"><g transform="translate(-4.084321475625823 23.87922705314009) scale(1.2492070463084957)" fill="#FFFFFF"><g id="line1"><path d="M53.121-4.641L53.121-4.641Q53.191-4.043 53.191-3.516L53.191-3.516Q53.191-2.883 53.086-2.426L53.086-2.426L53.051-1.758L52.980-1.828L52.945-1.617L53.051-1.688L53.016-1.266L52.980-0.773Q52.945-0.176 52.910 0.211L52.910 0.211Q52.770 1.406 52.418 2.039L52.418 2.039L52.418 2.145Q52.418 2.285 52.313 2.355L52.313 2.355L52.207 2.602L52.277 2.672Q51.961 3.797 51.504 4.922L51.504 4.922Q51.469 5.309 51.223 5.625L51.223 5.625Q50.766 6.680 50.238 7.664L50.238 7.664L50.203 7.629L50.133 7.840Q50.027 8.086 49.887 8.297L49.887 8.297Q49.289 9.246 48.621 10.160L48.621 10.160Q48.059 11.355 46.758 12.621L46.758 12.621Q45.844 13.535 44.402 14.590L44.402 14.590L43.699 15.117Q43.313 15.539 42.785 15.785L42.785 15.785L42.188 16.172L41.625 16.523L41.344 16.699L41.344 16.629L41.273 16.734L40.184 17.297Q38.813 18.457 37.125 18.598L37.125 18.598L36.387 18.809Q35.684 19.230 34.453 19.477L34.453 19.477Q33.609 19.617 32.871 19.617L32.871 19.617L32.414 19.617L32.168 19.652L32.098 19.617L32.063 19.617L32.027 19.652L31.957 19.688L31.148 19.758Q30.551 19.898 30.059 19.898L30.059 19.898Q29.637 19.898 29.250 19.793L29.250 19.793L28.055 19.723Q27.773 19.758 27.492 19.758L27.492 19.758Q26.859 19.758 26.156 19.547L26.156 19.547L24.891 19.336L24.926 19.301L24.398 19.160L24.398 19.266L24.047 19.160L23.977 19.125L23.977 19.160L23.168 18.949L23.063 18.949Q22.641 18.949 22.113 18.668L22.113 18.668L21.234 18.387Q20.813 18.316 20.426 18.105L20.426 18.105L19.406 17.684Q18.668 17.543 17.754 16.910L17.754 16.910L16.664 16.348Q15.996 16.207 15.539 15.645L15.539 15.645L14.379 14.906L13.676 14.449Q12.902 13.922 12.516 13.395L12.516 13.395L12.410 13.324Q12.410 13.219 12.270 13.113L12.270 13.113L12.270 13.184L11.813 12.762L11.355 12.375Q10.828 11.883 10.512 11.496L10.512 11.496L9.633 10.477Q8.332 9.281 7.805 8.086L7.805 8.086Q7.277 7.313 6.891 6.645L6.891 6.645L7.031 6.680L6.926 6.539L6.820 6.539Q6.293 5.555 5.836 4.641L5.836 4.641L5.906 4.641L5.730 4.184L5.625 4.219L5.344 3.480Q5.203 3.234 5.133 2.988L5.133 2.988L4.852 2.285L4.887 2.180L4.781 1.969L4.746 1.934L4.711 1.828Q4.535 1.512 4.395 1.055L4.395 1.055L4.324 0.633L4.219 0.211Q3.902-0.492 3.867-1.230L3.867-1.230Q3.621-2.461 3.480-3.586L3.480-3.586L3.551-3.656L3.551-3.832Q3.516-3.867 3.480-3.867L3.480-3.867L3.445-3.867L3.375-4.816L3.445-4.852Q3.270-5.238 3.270-5.660L3.270-5.660Q3.270-5.906 3.340-6.152L3.340-6.152L3.340-7.383Q3.305-7.770 3.305-8.121L3.305-8.121Q3.305-9.352 3.586-10.266L3.586-10.266L3.727-11.145Q3.797-12.445 4.184-13.324L4.184-13.324Q4.395-14.168 4.641-14.836L4.641-14.836L4.676-14.801L4.887-15.609L5.133-16.453Q5.484-17.402 5.906-17.965L5.906-17.965L6.469-19.125Q6.926-20.180 7.348-20.918L7.348-20.918Q7.945-21.902 8.613-22.430L8.613-22.430L9.211-23.238Q9.422-23.660 9.809-23.941L9.809-23.941L10.512-24.715L10.547-24.680L10.758-24.996L10.828-25.031L11.426-25.699L12.059-26.367Q12.797-27.105 13.535-27.457L13.535-27.457L14.063-27.879L14.168-27.844Q15.012-28.688 16.207-29.285L16.207-29.285L16.840-29.672Q17.367-30.164 18.070-30.305L18.070-30.305L18.633-30.551Q19.230-31.113 20.074-31.184L20.074-31.184L20.215-31.254L19.863-31.605L19.898-31.641L19.863-31.676L19.723-31.746L19.617-31.852L19.652-31.887Q19.547-32.027 19.406-32.133L19.406-32.133L19.371-32.098L19.266-32.203Q18.316-32.836 17.367-34.383L17.367-34.383Q17.016-34.980 16.664-35.754L16.664-35.754L16.383-36.422L16.102-37.020L16.137-37.055Q15.785-37.512 15.715-38.039L15.715-38.039L15.398-39.023Q15.047-39.516 15.047-40.078L15.047-40.078Q15.047-40.219 15.082-40.359L15.082-40.359Q14.941-41.027 14.871-41.625L14.871-41.625L14.906-41.625Q14.766-42.047 14.766-42.504L14.766-42.504Q14.766-42.680 14.801-42.855L14.801-42.855L14.766-43.418Q14.906-43.559 14.906-43.734L14.906-43.734Q14.906-43.840 14.836-44.016L14.836-44.016L14.801-44.016Q14.836-45.141 15.012-46.266L15.012-46.266Q15.047-46.758 15.117-47.180L15.117-47.180Q15.223-47.707 15.328-48.164L15.328-48.164Q15.609-49.359 16.066-49.922L16.066-49.922Q16.348-50.555 16.664-51.117L16.664-51.117Q16.840-51.609 17.016-51.891L17.016-51.891Q17.227-52.313 17.508-52.559L17.508-52.559L18-53.262L18.070-53.191L18.211-53.438L18.387-53.684L18.352-53.719L18.668-54.105Q19.125-54.844 20.039-55.547L20.039-55.547Q20.566-56.004 20.953-56.320L20.953-56.320Q21.199-56.637 22.113-57.164L22.113-57.164L22.430-57.375Q24.504-58.922 26.613-59.238L26.613-59.238L26.543-59.238Q27.211-59.449 28.090-59.625L28.090-59.625Q28.758-59.836 29.285-59.836L29.285-59.836L29.426-59.836Q30.340-59.941 31.219-59.941L31.219-59.941Q31.922-59.941 32.625-59.871L32.625-59.871Q34.629-59.871 36.281-58.992L36.281-58.992L37.090-58.676Q38.004-58.465 39.094-57.727L39.094-57.727Q40.008-57.094 40.781-56.285L40.781-56.285L41.344-55.758L41.730-55.441L42.152-55.090Q42.574-54.633 42.715-54.211L42.715-54.211L42.785-54.105L42.750-54.070Q42.820-53.859 42.961-53.684L42.961-53.684L43.066-53.754L43.523-53.016Q44.297-51.961 44.684-50.766L44.684-50.766L44.965-49.922Q45.422-48.973 45.457-47.918L45.457-47.918Q45.633-46.828 45.668-45.773L45.668-45.773Q45.773-45.352 45.773-44.824L45.773-44.824Q45.773-44.508 45.738-44.156L45.738-44.156Q45.668-43.172 45.387-42.609L45.387-42.609L45.211-41.836L45.105-41.871L45.070-41.555L45.141-41.625Q45-41.063 44.754-40.430L44.754-40.430Q44.684-40.113 44.508-39.832L44.508-39.832Q44.227-39.129 43.840-38.461L43.840-38.461L43.699-38.145L43.559-37.828Q43.348-37.441 43.172-37.160L43.172-37.160Q42.680-36.387 42.152-36.176L42.152-36.176Q41.766-35.930 41.379-35.930L41.379-35.930Q40.992-35.930 40.605-36.176L40.605-36.176Q40.254-36.352 40.008-36.703L40.008-36.703L38.215-38.496L38.285-38.566Q38.215-38.707 38.074-38.707L38.074-38.707L38.004-38.707Q37.863-38.953 37.793-39.234L37.793-39.234Q37.723-39.375 37.723-39.551L37.723-39.551Q37.723-39.656 37.758-39.762L37.758-39.762Q37.793-39.938 37.863-40.113L37.863-40.113L37.934-40.148L38.109-40.395L38.004-40.430Q38.426-41.027 38.637-41.414L38.637-41.414L38.672-41.414L38.742-41.625L38.883-41.906L39.199-42.785L39.480-43.699Q39.656-44.473 39.691-45.246L39.691-45.246L39.727-45.211L39.727-45.668L39.691-45.598Q39.691-46.090 39.621-46.582L39.621-46.582L39.656-46.582L39.586-46.934L39.586-46.828Q39.480-47.461 39.270-48.094L39.270-48.094Q38.988-48.480 38.918-48.902L38.918-48.902L38.777-49.254L38.883-49.254Q38.848-49.430 38.707-49.605L38.707-49.605L38.672-49.465Q37.828-50.977 36.070-52.313L36.070-52.313Q35.543-52.699 34.980-52.980L34.980-52.980L34.980-53.016L34.840-53.051L34.594-53.156Q34.207-53.227 33.609-53.438L33.609-53.438L33.117-53.613L32.660-53.754Q31.816-53.930 30.973-53.930L30.973-53.930Q30.480-53.930 29.953-53.859L29.953-53.859Q29.391-53.684 28.512-53.438L28.512-53.438L27.773-53.262L27.070-53.086L26.367-52.770L26.297-52.805Q26.121-52.699 25.945-52.523L25.945-52.523Q25.523-52.102 24.996-51.891L24.996-51.891L24.328-51.363Q23.766-50.730 23.027-49.711L23.027-49.711L22.430-48.902L21.797-48.059Q21.199-46.793 20.918-45.422L20.918-45.422L20.883-45.527Q20.742-44.754 20.707-43.910L20.707-43.910L20.707-43.523Q20.707-42.785 20.813-42.328L20.813-42.328L20.848-42.152L21.059-41.133L21.305-40.148Q21.586-39.340 21.938-38.637L21.938-38.637L21.902-38.602Q21.973-38.426 22.078-38.320L22.078-38.320L22.113-38.355L22.219-38.145Q22.641-37.793 22.781-37.301L22.781-37.301Q23.098-36.844 23.484-36.457L23.484-36.457Q23.836-36.246 24.258-35.789L24.258-35.789L24.996-35.051L25.031-35.051Q26.719-33.785 29.039-33.258L29.039-33.258L29.355-33.188L29.707-33.188Q30.164-33.152 30.410-33.082L30.410-33.082Q31.148-32.906 31.184-32.133L31.184-32.133L31.219-31.887L31.219-31.641Q31.254-31.430 31.254-31.184L31.254-31.184Q31.254-30.762 31.148-30.305L31.148-30.305Q31.184-30.305 31.219-30.340L31.219-30.340L31.219-28.230Q31.219-27.879 31.008-27.563L31.008-27.563Q30.762-27.035 29.813-26.930L29.813-26.930L29.039-26.930L28.688-26.965L28.371-26.965L27.668-26.895L25.488-26.543L25.453-26.578L25.453-26.543L24.680-26.332L24.645-26.402L24.398-26.332L24.434-26.262L23.695-26.051Q23.238-25.770 22.746-25.734L22.746-25.734L22.605-25.699L22.570-25.699L22.395-25.664L22.324-25.629L22.359-25.594Q21.621-25.313 20.883-24.926L20.883-24.926Q20.531-24.574 20.004-24.469L20.004-24.469L19.020-23.906Q18.738-23.590 18.352-23.484L18.352-23.484Q17.473-22.887 16.629-22.184L16.629-22.184Q16.383-21.762 15.961-21.586L15.961-21.586Q14.344-20.109 13.078-18.387L13.078-18.387L12.762-17.754L12.410-17.156Q11.988-16.418 11.602-15.996L11.602-15.996Q11.180-15.188 10.863-14.379L10.863-14.379L10.758-14.379L10.652-14.098L10.758-14.133L10.336-13.008L10.266-12.621L10.160-12.199Q10.055-11.742 9.879-11.461L9.879-11.461L9.633-10.336Q9.668-10.195 9.668-10.090L9.668-10.090Q9.668-9.738 9.457-9.422L9.457-9.422L9.492-9.422L9.352-8.297L9.352-8.402L9.316-8.402Q9.352-8.262 9.352-8.086L9.352-8.086Q9.352-7.910 9.316-7.734L9.316-7.734Q9.281-7.102 9.281-6.434L9.281-6.434Q9.422-6.047 9.422-5.625L9.422-5.625Q9.422-5.344 9.352-5.027L9.352-5.027L9.387-4.676Q9.527-4.219 9.527-3.727L9.527-3.727L9.527-3.516Q9.668-2.672 9.844-1.898L9.844-1.898L9.809-1.863Q10.125-0.563 10.723 0.914L10.723 0.914L10.582 0.809Q10.652 1.055 10.793 1.266L10.793 1.266L10.863 1.230L11.180 1.934Q11.426 2.496 11.813 3.164L11.813 3.164Q12.305 3.621 12.480 4.289L12.480 4.289L12.867 4.852L13.289 5.414Q13.852 6.117 14.098 6.539L14.098 6.539Q14.766 7.313 15.539 8.051L15.539 8.051Q16.102 8.438 16.488 8.930L16.488 8.930L16.664 9.105L16.945 9.387L17.016 9.387Q18.141 10.266 19.371 11.004L19.371 11.004L19.371 11.039L19.547 11.180L19.582 11.109L20.250 11.461L20.215 11.566L20.531 11.672L20.531 11.637Q21.270 11.988 22.078 12.340L22.078 12.340L22.008 12.410L22.148 12.445Q22.219 12.445 22.254 12.410L22.254 12.410L23.203 12.727L23.309 12.727Q23.801 12.727 24.188 13.043L24.188 13.043L25.418 13.359Q25.734 13.359 26.016 13.465L26.016 13.465L27.141 13.641Q27.316 13.605 27.527 13.605L27.527 13.605Q27.879 13.605 28.266 13.676L28.266 13.676L28.863 13.746L29.426 13.816L29.988 13.816L31.043 13.676L32.133 13.465Q33.469 13.219 34.242 13.219L34.242 13.219Q34.980 13.008 35.543 12.832L35.543 12.832L35.824 12.727L36 12.621Q36.457 12.305 36.984 12.234L36.984 12.234Q38.039 11.742 39.023 11.109L39.023 11.109Q39.551 10.652 40.570 9.844L40.570 9.844L42.117 8.613L42.504 8.227L42.504 8.262L42.715 8.051L42.680 8.016L43.805 6.680L44.051 6.363L44.016 6.363Q44.508 5.660 44.930 4.922L44.930 4.922L44.965 5.063L45.141 4.711L45.070 4.676Q45.387 4.043 45.703 3.340L45.703 3.340L45.738 3.340L45.809 3.059Q45.879 2.391 46.301 1.793L46.301 1.793Q46.547 0.984 46.723 0.176L46.723 0.176Q46.758-0.352 46.934-0.844L46.934-0.844L46.969-1.125L47.039-1.195L47.074-1.230L47.004-1.336L47.074-1.934Q46.934-2.672 46.934-3.480L46.934-3.480Q46.934-4.148 47.039-4.887L47.039-4.887L46.898-5.660Q47.004-5.695 47.004-5.801L47.004-5.801L46.898-6.258L46.793-6.223Q46.582-7.066 46.195-7.910L46.195-7.910Q45.914-8.297 45.809-8.789L45.809-8.789Q45-10.371 43.770-11.637L43.770-11.637L43.805-11.707L43.559-11.918L43.559-11.883L43.313-12.094L42.785-12.480L42.258-12.867Q41.625-13.359 41.203-13.641L41.203-13.641Q38.883-14.941 34.910-15.047L34.910-15.047Q34.172-15.012 33.469-14.871L33.469-14.871Q30.129-13.605 28.723-12.727L28.723-12.727L28.336-12.445Q28.090-12.305 27.773-12.305L27.773-12.305Q27-12.270 25.840-13.148L25.840-13.148Q24.258-14.344 24.152-15.328L24.152-15.328Q24.012-15.645 24.012-15.926L24.012-15.926Q24.012-16.348 24.293-16.734L24.293-16.734Q24.574-17.227 25.102-17.473L25.102-17.473Q25.805-18 26.543-18.492L26.543-18.492Q26.965-19.020 27.633-19.055L27.633-19.055L27.703-19.090L27.668-19.125L28.512-19.512Q28.828-19.793 29.250-19.828L29.250-19.828L30.199-20.180Q30.867-20.637 32.063-20.883L32.063-20.883Q32.801-21.023 33.469-21.023L33.469-21.023Q33.785-21.023 34.102-20.988L34.102-20.988Q34.875-21.059 35.613-21.059L35.613-21.059Q36.387-21.059 37.160-20.988L37.160-20.988Q37.441-21.023 37.723-21.023L37.723-21.023Q38.461-21.023 39.199-20.707L39.199-20.707L40.184-20.461Q40.816-20.426 41.695-20.109L41.695-20.109Q42.645-19.793 43.066-19.406L43.066-19.406L44.016-18.914Q45.984-18.246 47.355-16.418L47.355-16.418L47.391-16.453L47.953-15.891Q48.270-15.680 48.586-15.293L48.586-15.293Q48.797-15.047 49.113-14.590L49.113-14.590Q49.816-13.711 50.379-12.797L50.379-12.797Q51.609-11.461 52.348-8.965L52.348-8.965Q52.945-6.961 53.121-4.641Z"></path><path d="M73.617-9.211L73.582-9.070Q73.160-7.453 71.508-6.539L71.508-6.539Q70.840-6.188 70.137-6.117L70.137-6.117L68.344-6.117L68.344-6.082L68.133-6.047L67.816-6.047L67.816-6.117L67.078-6.117Q66.973-6.152 66.832-6.152L66.832-6.152Q66.691-6.152 66.551-6.117L66.551-6.117L65.777-6.117L65.742-6.152L65.742-7.207Q65.883-7.840 65.883-8.438L65.883-8.438Q65.883-9.070 65.742-9.668L65.742-9.668L65.742-10.160L65.707-10.230L65.707-10.336L65.742-10.371L65.742-10.617Q65.813-11.039 65.813-11.566L65.813-11.566L65.813-12.621L65.742-13.254L65.742-14.590Q65.953-15.047 65.953-16.172L65.953-16.172L65.953-16.523Q65.918-17.824 65.742-18.527L65.742-18.527L65.742-20.602Q65.918-21.164 65.918-22.078L65.918-22.078L65.918-22.641L65.813-23.730Q65.777-24.398 65.742-24.715L65.742-24.715L65.742-25.805L65.707-25.770L65.707-25.840L65.742-25.805L65.742-26.473Q65.813-26.754 65.813-27.035L65.813-27.035Q65.813-27.352 65.742-27.633L65.742-27.633L65.742-28.406Q65.848-28.793 65.848-29.039L65.848-29.039Q65.848-29.320 65.742-29.496L65.742-29.496L65.742-31.043L65.672-30.973L65.672-31.324L65.742-31.254L65.742-31.570Q65.813-31.816 65.813-32.168L65.813-32.168L65.777-32.484L65.742-32.766L65.742-34.031L66.059-34.031L66.094-34.066L66.199-34.031L66.375-34.031Q66.586-33.926 66.973-33.926L66.973-33.926L67.184-33.926L67.570-33.996L67.957-34.031L67.992-34.031L68.555-33.961Q68.871-33.961 69.082-34.031L69.082-34.031L69.750-34.031Q70.559-34.031 71.297-33.680L71.297-33.680L71.754-33.293L72.211-32.941Q72.703-32.520 72.984-32.203L72.984-32.203Q73.723-31.289 73.723-30.023L73.723-30.023L73.723-28.617Q73.652-27.949 73.582-27.422L73.582-27.422Q73.547-26.719 73.512-26.121L73.512-26.121L73.512-25.734Q73.512-24.469 73.723-23.625L73.723-23.625L73.723-22.500Q73.758-22.570 73.793-22.570L73.793-22.570L73.758-22.395L73.758-22.148L73.723-22.184L73.723-22.113L73.758-22.113L73.758-21.832L73.723-21.832L73.723-21.691Q73.688-21.375 73.688-21.059L73.688-21.059Q73.688-20.742 73.723-20.426L73.723-20.426L73.723-15.539Q73.617-15.188 73.617-14.695L73.617-14.695L73.617-14.414L73.688-13.816L73.723-13.219L73.723-10.090Q73.723-9.668 73.617-9.211L73.617-9.211ZM79.770-11.742L79.770-12.094Q79.770-12.270 79.734-12.410L79.734-12.410L79.699-12.656L79.699-13.184L79.664-13.219L79.664-13.676L79.699-13.852L79.699-15.785Q79.805-16.523 79.805-17.508L79.805-17.508L79.805-18.035L79.734-19.160L79.699-20.285L79.699-20.672L79.664-21.164L79.699-21.164L79.699-21.410Q79.770-21.797 79.770-22.113L79.770-22.113Q79.770-22.395 79.699-22.605L79.699-22.605L79.699-23.520Q79.734-23.625 79.734-23.836L79.734-23.836Q79.734-24.188 79.629-24.785L79.629-24.785Q79.664-24.891 79.699-24.926L79.699-24.926L79.699-25.594Q79.770-25.875 79.770-26.227L79.770-26.227L79.770-26.508L79.699-27.422L79.699-30.023Q79.699-30.832 79.559-31.641L79.559-31.641L79.559-31.781Q79.559-32.238 79.348-32.660L79.348-32.660L79.242-33.047L79.172-33.082L79.031-33.469L79.102-33.469Q78.926-33.891 78.715-34.383L78.715-34.383Q78.117-35.754 77.379-36.387L77.379-36.387Q77.098-36.738 76.816-37.055L76.816-37.055Q75.938-38.145 74.602-38.742L74.602-38.742L74.320-38.883L74.285-38.848L74.074-38.918L74.039-38.953Q74.039-38.988 74.074-39.023L74.074-39.023L73.406-39.305L73.371-39.270Q72.773-39.762 71.438-39.973L71.438-39.973Q70.770-40.078 70.207-40.078L70.207-40.078Q69.715-40.078 69.328-40.008L69.328-40.008L67.078-40.008Q66.480-40.184 65.566-40.184L65.566-40.184Q65.250-40.184 64.898-40.148L64.898-40.148L63.738-40.078Q63.035-40.008 62.648-40.008L62.648-40.008L62.613-40.008Q62.508-39.973 62.367-39.973L62.367-39.973Q62.367-40.008 61.277-40.008L61.277-40.008L61.242-40.008L61.172-39.938L60.891-39.938L60.785-39.902Q60.012-39.762 59.871-39.023L59.871-39.023Q59.766-38.777 59.766-38.496L59.766-38.496L59.766-38.109Q59.695-37.758 59.695-37.477L59.695-37.477Q59.695-37.195 59.766-36.984L59.766-36.984L59.766-36.668L59.871-36.703L59.906-36.352L59.766-36.387L59.766-34.875Q59.730-34.699 59.730-34.453L59.730-34.453L59.730-33.926L59.766-33.609L59.766-31.852Q59.695-31.535 59.695-31.184L59.695-31.184L59.766-30.480L59.766-30.023L59.730-29.461Q59.730-29.145 59.766-28.898L59.766-28.898L59.766-26.684Q59.625-26.332 59.625-25.523L59.625-25.523L59.625-24.961L59.695-24.504L59.730-24.012Q59.766-23.484 59.766-23.203L59.766-23.203L59.766-22.043L59.801-22.078L59.801-21.762L59.766-21.797L59.766-20.637Q59.695-19.969 59.660-19.441L59.660-19.441Q59.590-18.703 59.555-18.105L59.555-18.105L59.555-17.719Q59.555-16.418 59.766-15.539L59.766-15.539L59.766-13.570Q59.730-13.219 59.730-12.902L59.730-12.902Q59.730-12.551 59.766-12.234L59.766-12.234L59.766-10.301L59.836-10.195L59.836-10.055L59.766-9.984L59.766-7.242Q59.660-6.891 59.660-6.328L59.660-6.328L59.660-6.047L59.730-5.449L59.766-4.852L59.766-1.617L59.801-1.301L59.906-1.371Q59.906-1.160 59.941-0.984L59.941-0.984L60.047-0.809Q60.398-0.070 61.734 0L61.734 0Q62.191 0 62.824-0.035L62.824-0.035L63.316-0.105Q63.633-0.105 63.773-0.141L63.773-0.141L65.074-0.141L65.883-0.105L66.691-0.141L68.309-0.141Q68.801-0.070 69.258-0.070L69.258-0.070Q69.715-0.070 70.102-0.141L70.102-0.141Q71.859-0.211 73.477-0.844L73.477-0.844L73.512-0.949L73.723-1.055L73.758-0.984Q74.813-1.441 75.691-2.109L75.691-2.109L75.691-2.145Q75.691-2.215 75.762-2.250L75.762-2.250Q75.832-2.320 75.902-2.320L75.902-2.320Q75.938-2.320 75.938-2.285L75.938-2.285L76.184-2.496Q76.219-2.637 76.359-2.637L76.359-2.637L76.676-2.953L76.641-2.988L76.746-3.129L76.711-2.988Q77.027-3.305 77.309-3.621L77.309-3.621L77.273-3.691L77.484-3.973L77.555-3.902Q79.699-6.609 79.699-10.090L79.699-10.090L79.699-10.652Q79.805-10.934 79.805-11.355L79.805-11.355L79.770-11.742Z"></path><path d="M105.539-14.625L105.539-13.043Q105.680-12.621 105.680-11.918L105.680-11.918L105.680-11.602Q105.680-11.250 105.609-10.828L105.609-10.828Q105.574-10.512 105.539-10.125L105.539-10.125L105.539-9.352L105.469-9.387L105.504-9L105.504-8.895Q105.539-8.754 105.539-8.648L105.539-8.648Q105.539-8.297 105.398-7.980L105.398-7.980L105.363-7.805Q105.223-6.961 104.941-6.152L104.941-6.152Q104.660-4.922 103.922-4.078L103.922-4.078L103.816-3.902L103.781-3.902L103.711-3.797L103.641-3.656Q102.867-2.180 101.109-1.230L101.109-1.230Q100.512-0.809 99.773-0.457L99.773-0.457Q98.262 0.563 96.293 0.563L96.293 0.563Q95.625 0.563 94.922 0.457L94.922 0.457Q93.621 0.352 92.426-0.035L92.426-0.035Q92.215-0.070 92.004-0.211L92.004-0.211L91.688-0.316L91.723-0.387L91.652-0.422L91.477-0.457L91.266-0.527Q90.773-0.773 90.281-1.055L90.281-1.055L90.352-1.090L90.035-1.301L90-1.266Q89.543-1.582 89.121-1.969L89.121-1.969Q88.594-2.145 88.383-2.637L88.383-2.637L88.313-2.742Q88.277-2.953 88.102-2.953L88.102-2.953Q87.574-3.586 87.117-4.289L87.117-4.289L87.117-4.324Q87.117-4.359 87.047-4.395L87.047-4.395L86.625-5.203Q86.238-5.625 86.063-6.293L86.063-6.293Q85.922-6.715 85.816-7.523L85.816-7.523L85.781-7.770Q85.570-8.367 85.570-8.965L85.570-8.965Q85.570-9.211 85.605-9.492L85.605-9.492L85.605-13.395Q85.395-14.098 85.395-15.363L85.395-15.363Q85.395-16.664 85.605-17.297L85.605-17.297L85.605-18.492L85.676-18.527L85.676-18.633L85.605-18.879L85.605-20.250Q85.535-20.672 85.535-21.023L85.535-21.023Q85.535-21.340 85.605-21.586L85.605-21.586L85.605-23.414L85.676-23.449L85.641-23.660L85.641-24.012L85.605-23.977L85.605-25.523Q85.465-26.227 85.465-27.035L85.465-27.035Q85.465-27.879 85.605-28.793L85.605-28.793L85.605-29.742L85.535-30.234L85.500-30.727L85.500-30.973Q85.500-31.430 85.605-31.711L85.605-31.711L85.605-33.891Q85.570-34.137 85.570-34.348L85.570-34.348Q85.570-34.559 85.605-34.770L85.605-34.770L85.605-35.789Q85.535-36.070 85.535-36.316L85.535-36.316Q85.535-36.563 85.605-36.809L85.605-36.809L85.605-37.195L85.676-37.125L85.676-37.406L85.605-37.301L85.605-38.391Q85.605-39.023 86.027-39.445L86.027-39.445Q86.484-39.902 87.082-39.902L87.082-39.902L87.504-39.902Q88.102-40.078 88.945-40.078L88.945-40.078L89.227-40.078Q90.387-40.043 90.879-39.656L90.879-39.656Q91.266-39.410 91.441-38.988L91.441-38.988Q91.723-38.426 91.723-37.371L91.723-37.371Q91.723-36.457 91.582-35.684L91.582-35.684L91.582-34.805Q91.617-34.594 91.617-34.348L91.617-34.348Q91.617-34.137 91.582-33.891L91.582-33.891L91.582-32.660Q91.617-32.449 91.617-32.238L91.617-32.238Q91.617-32.027 91.582-31.816L91.582-31.816L91.582-29.777Q91.758-28.934 91.758-28.090L91.758-28.090Q91.758-27.246 91.582-26.438L91.582-26.438L91.582-25.277L91.512-25.207L91.512-24.926L91.582-24.855L91.582-24.820L91.547-24.785L91.547-24.750L91.582-24.715L91.582-24.609Q91.723-24.188 91.723-23.625L91.723-23.625Q91.723-23.063 91.582-22.359L91.582-22.359L91.582-21.586Q91.934-20.109 91.934-18.563L91.934-18.563Q91.934-17.016 91.582-15.363L91.582-15.363L91.582-14.344L91.512-14.414L91.512-14.238L91.582-14.309L91.582-13.324Q91.652-12.973 91.652-12.691L91.652-12.691Q91.652-12.410 91.582-12.199L91.582-12.199L91.582-10.969L91.617-10.512L91.582-10.055L91.582-9.281Q91.688-8.508 92.109-7.805L92.109-7.805Q92.250-7.559 92.496-7.172L92.496-7.172L92.742-6.855L92.953-6.504Q93.305-6.188 93.727-5.941L93.727-5.941Q93.762-5.871 93.832-5.871L93.832-5.871L93.902-5.871L94.359-5.695Q95.098-5.625 95.836-5.520L95.836-5.520L96.328-5.590L96.188-5.520L96.434-5.590L96.715-5.695L97.418-5.977Q98.156-6.363 98.648-6.996L98.648-6.996L98.719-6.926Q98.824-7.066 98.859-7.242L98.859-7.242L98.895-7.313Q98.965-7.594 99.070-7.980L99.070-7.980L99.211-8.684Q99.352-9.563 99.563-9.984L99.563-9.984L99.563-11.742L99.492-12.059L99.457-12.340L99.457-12.480Q99.457-12.762 99.563-12.973L99.563-12.973L99.563-14.027Q99.492-14.273 99.492-14.484L99.492-14.484Q99.492-14.730 99.563-14.941L99.563-14.941L99.563-15.715L99.598-15.785Q99.492-16.207 99.492-16.523L99.492-16.523Q99.492-16.770 99.563-16.945L99.563-16.945L99.563-17.859L99.598-17.824Q99.492-18.211 99.492-18.492L99.492-18.492Q99.492-18.703 99.563-18.879L99.563-18.879L99.563-19.969Q99.387-20.320 99.387-21.129L99.387-21.129L99.387-21.410Q99.387-22.359 99.563-22.887L99.563-22.887L99.563-23.977Q99.457-24.328 99.457-24.891L99.457-24.891L99.457-25.172L99.492-25.770L99.563-26.367L99.563-32.871Q99.422-33.223 99.422-33.820L99.422-33.820L99.492-34.277L99.563-34.770L99.563-36.879Q99.492-37.125 99.492-37.406L99.492-37.406Q99.492-37.688 99.563-38.004L99.563-38.004L99.563-38.391Q99.563-38.813 99.773-39.164L99.773-39.164Q99.914-39.480 100.230-39.656L100.230-39.656Q100.617-39.902 101.039-39.902L101.039-39.902L104.027-39.902Q104.344-39.902 104.590-39.762L104.590-39.762Q105.434-39.621 105.574-38.672L105.574-38.672Q105.609-38.426 105.609-38.145L105.609-38.145L105.609-37.863L105.574-37.441L105.539-37.090L105.539-36.352L105.434-36.563L105.434-36.352Q105.434-36.141 105.469-35.930L105.469-35.930L105.539-35.895L105.539-34.559L105.504-34.523L105.504-34.383L105.539-34.348L105.539-32.906Q105.609-32.730 105.609-32.449L105.609-32.449Q105.609-32.168 105.539-31.781L105.539-31.781L105.539-31.008Q105.574-30.762 105.574-30.445L105.574-30.445Q105.574-30.129 105.539-29.777L105.539-29.777L105.539-27.914Q105.609-27.703 105.609-27.457L105.609-27.457L105.609-27.281L105.539-26.648L105.539-22.535Q105.398-22.500 105.398-22.395L105.398-22.395L105.398-22.324L105.539-22.184L105.539-20.988Q105.609-20.707 105.609-20.355L105.609-20.355L105.574-20.074L105.539-19.758L105.539-18.352Q105.574-17.859 105.574-17.402L105.574-17.402Q105.574-16.980 105.539-16.629L105.539-16.629Q105.539-15.117 105.504-15.117L105.504-15.117L105.539-14.625Z"></path><path d="M146.004 1.055L145.969 1.371L145.934 1.723L145.934 2.391Q145.582 4.430 144.703 6.223L144.703 6.223L144.773 6.223Q144.598 6.609 144.352 6.961L144.352 6.961L144.316 6.926Q144.070 7.383 143.754 7.840L143.754 7.840Q143.508 8.121 143.262 8.543L143.262 8.543L143.051 8.895L142.805 9.246L142.699 9.176L142.137 9.809Q138.832 12.516 136.758 13.219L136.758 13.219L136.793 13.254L136.336 13.430L136.301 13.395L135.914 13.500L135.984 13.535L135.527 13.676L135.457 13.605Q134.086 13.957 132.645 13.992L132.645 13.992Q132.258 13.887 131.590 13.887L131.590 13.887L130.500 13.887L129.867 13.816Q128.355 13.465 127.160 13.078L127.160 13.078L126.703 12.867Q125.930 12.551 125.156 12.094L125.156 12.094Q124.770 11.742 124.277 11.531L124.277 11.531Q123.504 11.004 122.801 10.371L122.801 10.371Q122.555 10.020 122.168 9.598L122.168 9.598L121.465 8.824Q120.621 7.910 120.199 7.207L120.199 7.207Q120.023 6.715 119.707 6.293L119.707 6.293L119.355 5.520Q119.250 5.063 118.934 4.184L118.934 4.184L118.688 3.516Q118.582 3.129 118.512 2.813L118.512 2.813Q118.406 1.934 118.371 0.773L118.371 0.773L118.266-1.266Q118.441-3.797 119.250-6.223L119.250-6.223L119.215-6.258L119.285-6.609L119.355-6.680L119.391-6.609L119.672-7.383Q119.918-7.734 120.164-8.262L120.164-8.262Q120.305-8.578 120.516-9.176L120.516-9.176L120.973-10.020Q121.324-10.406 121.500-10.863L121.500-10.863Q121.570-11.180 121.781-11.391L121.781-11.391L121.852-11.355L122.098-11.707Q122.555-11.988 122.695-12.516L122.695-12.516Q123.328-13.254 123.961-13.922L123.961-13.922L123.926-13.957L123.961-13.992L124.066-14.063L124.102-14.063Q125.051-15.012 126.141-15.820L126.141-15.820L126.105-15.926L126.492-16.207L126.598-16.172Q127.406-16.734 128.320-17.262L128.320-17.262L128.742-17.438L129.164-17.613Q129.621-17.824 129.902-18.070L129.902-18.070Q130.289-18.246 130.816-18.422L130.816-18.422L131.801-18.703Q133.102-19.020 133.664-19.371L133.664-19.371L134.648-19.547L134.789-19.547Q135.211-19.547 135.703-19.723L135.703-19.723L136.758-19.828Q137.285-19.793 137.672-19.793L137.672-19.793Q138.199-19.793 138.586-19.863L138.586-19.863L139.641-19.863Q140.273-19.652 141.715-19.652L141.715-19.652L142.137-19.652Q143.754-19.652 144.633-19.863L144.633-19.863L145.758-19.863L145.828-19.934L145.863-19.863L146.004-19.863L146.145-19.758L146.145-17.332Q146.074-17.086 146.074-16.840L146.074-16.840Q146.074-16.594 146.145-16.348L146.145-16.348L146.145-15.469Q146.215-15.434 146.215-15.328L146.215-15.328Q146.215-15.258 146.145-15.152L146.145-15.152L146.145-14.238L146.215-14.309L146.215-13.992Q146.180-13.992 146.145-14.098L146.145-14.098L146.145-12.586Q146.004-11.988 146.004-11.461L146.004-11.461L146.004-11.250Q146.004-10.758 146.145-10.371L146.145-10.371L146.145-7.453Q145.898-6.891 145.898-5.660L145.898-5.660L145.898-5.098Q145.934-3.727 146.145-2.637L146.145-2.637L146.145 0.070L146.109 0.316L146.145 0.281L146.145 0.352L146.109 0.457L146.074 0.738L146.004 1.055L146.004 1.090L146.039 1.020L146.004 1.055ZM170.121-4.465Q170.121-4.711 170.051-4.887L170.051-4.887L170.051-5.379L169.945-5.414L169.945-5.555Q169.945-5.695 169.980-5.836L169.980-5.836L170.051-5.836L170.051-6.117Q170.121-6.328 170.121-6.504L170.121-6.504Q170.121-6.715 170.051-6.926L170.051-6.926L170.051-10.969L170.016-10.934L170.016-11.180L170.051-11.215L170.051-11.953Q170.086-12.305 170.086-12.621L170.086-12.621Q170.086-12.938 170.051-13.184L170.051-13.184L170.051-15.082Q170.262-15.609 170.262-16.137L170.262-16.137Q170.262-16.664 170.051-17.156L170.051-17.156L170.051-17.859L169.945-17.859L169.945-18.105L170.051-17.965L170.051-18.633L170.016-18.668L170.051-18.738L170.051-19.195Q170.262-19.793 170.262-20.813L170.262-20.813L170.262-21.129Q170.227-22.254 170.051-23.098L170.051-23.098L170.051-24.820L170.016-24.820L170.016-25.383L170.051-25.348L170.051-25.980L170.016-25.980L170.051-26.191L170.051-26.262Q170.121-26.824 170.121-27.387L170.121-27.387Q170.121-27.949 170.051-28.512L170.051-28.512L170.051-28.688L170.016-28.898L170.051-28.898L170.051-31.254Q170.262-32.063 170.262-32.836L170.262-32.836Q170.262-33.680 170.016-34.488L170.016-34.488L170.051-34.523L170.051-35.473Q170.191-35.930 170.191-36.668L170.191-36.668L170.191-36.984Q170.191-37.863 170.051-38.566L170.051-38.566L170.051-39.305L170.016-39.305L170.051-39.480L170.121-39.973L170.156-40.500L170.156-40.746Q170.156-41.203 170.051-41.520L170.051-41.520L170.051-41.801L170.016-41.801L169.980-41.836L169.980-42.188L170.051-42.258L170.051-44.156L169.980-44.086L169.945-44.191Q169.945-44.332 169.980-44.508L169.980-44.508L170.051-44.543L170.051-46.230L169.980-46.160L169.980-46.406L170.051-46.336L170.051-48.586Q170.121-48.867 170.121-49.113L170.121-49.113Q170.121-49.395 170.051-49.641L170.051-49.641L170.051-53.473L169.980-53.613L170.016-53.789L170.051-53.824L170.051-54.457L170.086-55.055L170.086-55.266Q170.086-55.512 170.051-55.688L170.051-55.688L170.051-58.254Q170.051-59.309 169.031-59.660L169.031-59.660L169.102-59.625L169.207-59.555L169.172-59.520L168.926-59.590L168.996-59.660Q168.750-59.730 168.539-59.730L168.539-59.730L167.871-59.730Q167.695-59.766 167.520-59.766L167.520-59.766Q167.379-59.766 167.203-59.730L167.203-59.730L166.465-59.730L166.465-59.695L166.430-59.730L165.551-59.730Q164.953-59.730 164.496-59.309L164.496-59.309Q164.074-58.852 164.074-58.254L164.074-58.254L164.074-57.832Q163.969-57.305 163.969-56.813L163.969-56.813L163.969-56.566Q163.969-56.109 164.074-55.793L164.074-55.793L164.074-51.398L164.145-51.434L164.109-50.801L164.074-50.801L164.074-49.957L164.039-49.605L164.004-49.289Q163.969-49.184 163.969-49.078L163.969-49.078Q163.969-48.832 164.074-48.656L164.074-48.656L164.074-47.637L164.109-47.637Q164.004-47.250 164.004-46.652L164.004-46.652L164.039-46.125L164.074-45.633L164.074-43.277Q164.039-42.891 164.039-42.398L164.039-42.398L164.074-41.484L164.074-36.492Q163.934-36.176 163.934-35.754L163.934-35.754Q163.934-35.578 163.969-35.402L163.969-35.402L164.004-34.805L164.074-34.277L164.074-33.574Q164.039-32.871 164.039-32.133L164.039-32.133Q164.039-31.430 164.074-30.656L164.074-30.656L164.074-28.477Q164.004-28.160 164.004-27.879L164.004-27.879Q164.004-27.598 164.074-27.387L164.074-27.387L164.074-26.227L164.180-26.332L164.250-26.262L164.250-26.191Q164.250-26.016 164.145-25.910L164.145-25.910L164.074-25.945L164.074-25.840L163.652-25.840Q163.863-25.840 163.934-25.734L163.934-25.734Q163.863-25.699 163.828-25.699L163.828-25.699Q163.688-25.699 163.582-25.805L163.582-25.805L163.617-25.840L163.477-25.840Q163.230-26.016 162.633-26.016L162.633-26.016Q162.457-26.016 162.211-25.980L162.211-25.980L161.824-25.945L161.473-25.910Q161.051-25.875 160.875-25.840L160.875-25.840L159.645-25.840Q159.398-25.910 159.117-25.910L159.117-25.910Q158.836-25.910 158.555-25.840L158.555-25.840L157.711-25.840Q157.430-25.910 157.043-25.910L157.043-25.910L156.797-25.910L156.340-25.875L155.848-25.840L154.898-25.840L154.371-25.910L153.809-25.945Q153.633-25.980 153.457-25.980L153.457-25.980Q153.070-25.980 152.754-25.840L152.754-25.840L152.262-25.840L152.121-25.980L152.121-26.648Q152.156-26.824 152.156-26.965L152.156-26.965Q152.156-27.141 152.121-27.281L152.121-27.281L152.121-28.547L152.051-28.477L152.051-29.180L152.121-29.074L152.121-29.742L151.980-29.672L151.980-30.094Q152.016-30.059 152.121-29.988L152.121-29.988L152.121-32.871Q152.051-32.977 152.051-33.047L152.051-33.047Q152.051-33.117 152.121-33.152L152.121-33.152L152.121-33.434Q152.227-33.750 152.227-34.207L152.227-34.207L152.227-34.453Q152.227-34.980 152.121-35.508L152.121-35.508L152.121-36.422Q152.191-36.703 152.191-36.949L152.191-36.949Q152.191-37.230 152.121-37.477L152.121-37.477L152.121-38.461Q152.227-38.742 152.227-39.023L152.227-39.023Q152.227-39.270 152.121-39.516L152.121-39.516L152.121-46.758L152.156-47.250L152.227-47.742Q152.227-48.305 152.121-48.691L152.121-48.691L152.121-49.008L152.051-49.078L152.051-49.289L152.121-49.395L152.121-50.344Q152.121-50.555 152.156-50.906L152.156-50.906L152.227-51.539L152.227-51.820Q152.227-52.348 152.121-52.699L152.121-52.699L152.121-53.648Q152.227-53.895 152.227-54.176L152.227-54.176Q152.227-54.457 152.121-54.773L152.121-54.773L152.121-55.758Q152.191-56.215 152.191-56.672L152.191-56.672Q152.191-57.234 152.086-57.832L152.086-57.832L152.121-57.797L152.121-58.254Q152.121-58.535 151.980-58.816L151.980-58.816Q151.840-59.660 149.730-59.871L149.730-59.871Q149.098-59.941 148.570-59.941L148.570-59.941Q147.480-59.941 146.953-59.625L146.953-59.625Q146.496-59.449 146.250-59.063L146.250-59.063Q145.898-58.711 145.898-58.254L145.898-58.254Q145.898-58.113 145.934-58.008L145.934-58.008Q145.688-56.953 145.160-55.969L145.160-55.969Q144.879-55.617 144.703-55.195L144.703-55.195Q144.141-54.387 143.438-53.754L143.438-53.754L143.402-53.719L143.297-53.648Q142.594-53.051 141.785-52.664L141.785-52.664L140.695-52.313Q140.098-52.137 139.676-51.926L139.676-51.926L139.113-51.820L139.219-51.750Q139.043-51.715 138.727-51.715L138.727-51.715L138.727-51.785Q138.445-51.750 138.164-51.750L138.164-51.750Q137.426-51.750 136.723-51.891L136.723-51.891Q136.441-52.031 136.090-52.172L136.090-52.172L135.422-52.383Q134.578-52.664 134.156-52.875L134.156-52.875L133.242-53.438Q132.926-53.613 132.645-53.613L132.645-53.613Q132.434-53.613 132.223-53.508L132.223-53.508Q131.801-53.402 131.555-53.121L131.555-53.121L130.711-52.277L130.781-52.242Q130.676-52.172 130.605-52.102L130.605-52.102L130.465-51.996L130.500-52.102L130.113-51.680L130.113-51.645L129.867-51.434L129.621-51.188Q129.305-50.906 129.164-50.695L129.164-50.695Q128.918-50.344 128.918-49.992L128.918-49.992Q128.918-49.711 129.059-49.430L129.059-49.430Q129.129-49.254 129.234-49.113L129.234-49.113L129.234-49.184L129.797-48.656L129.762-48.586L130.113-48.340Q130.324-48.094 130.641-47.988L130.641-47.988Q131.133-47.672 131.625-47.426L131.625-47.426Q132.188-46.863 133.488-46.477L133.488-46.477Q133.980-46.336 134.613-46.195L134.613-46.195L135.141-46.090L135.633-46.020L135.633-46.090L136.266-45.984L136.266-45.949L136.230-45.914L136.547-45.879Q137.074-45.633 137.707-45.633L137.707-45.633Q138.234-45.633 138.797-45.809L138.797-45.809L139.254-45.844L139.289-45.879L139.430-45.879L139.430-45.844L139.641-45.879Q139.816-45.844 139.992-45.844L139.992-45.844Q140.836-45.844 142.207-46.371L142.207-46.371L142.242-46.406L142.453-46.477Q143.578-46.828 144.703-47.426L144.703-47.426Q145.195-47.672 146.109-48.270L146.109-48.270L146.145-48.234L146.145-47.602Q146.109-47.426 146.109-47.250L146.109-47.250Q146.109-47.074 146.145-46.898L146.145-46.898L146.145-46.055L146.215-46.195L146.215-45.703L146.145-45.809L146.145-45.598L146.215-45.527L146.215-45.246L146.145-45.105L146.145-43.734Q146.074-43.488 146.074-43.242L146.074-43.242Q146.074-42.996 146.145-42.715L146.145-42.715L146.145-41.941L146.215-42.012L146.215-41.801L146.145-41.871L146.145-40.816Q146.074-40.465 146.074-40.184L146.074-40.184Q146.074-39.832 146.180-39.516L146.180-39.516L146.145-39.516L146.145-39.270L146.215-39.270L146.250-38.848L146.250-38.461Q146.215-38.355 146.145-38.285L146.145-38.285L146.145-35.508L146.074-35.016L146.004-34.488L146.004-34.277Q146.004-33.785 146.145-33.504L146.145-33.504L146.145-32.484L146.180-32.449Q146.074-32.027 146.039-31.500L146.039-31.500Q146.039-30.938 146.145-30.551L146.145-30.551L146.145-29.391Q146.074-29.145 146.074-28.898L146.074-28.898Q146.074-28.688 146.145-28.441L146.145-28.441L146.145-27.457Q146.039-27.176 146.039-26.895L146.039-26.895Q146.039-26.648 146.145-26.438L146.145-26.438L146.145-25.945L146.039-25.840L145.582-25.840L145.652-25.734L145.477-25.770L145.512-25.840L144.598-25.840Q144.387-25.875 144.176-25.875L144.176-25.875Q144-25.875 143.789-25.840L143.789-25.840L142.242-25.840L142.207-25.805L141.891-25.805L141.855-25.840L140.871-25.840L140.273-25.875L139.711-25.840L138.164-25.840Q136.969-25.840 135.703-25.734L135.703-25.734L135.141-25.699L134.613-25.664Q133.980-25.629 133.523-25.453L133.523-25.453L133.066-25.348L132.574-25.277Q131.941-25.207 131.520-25.102L131.520-25.102Q130.289-24.855 129.691-24.434L129.691-24.434L128.426-23.941L128.004-23.836L127.582-23.695Q127.125-23.520 126.879-23.273L126.879-23.273Q125.508-22.605 124.242-21.797L124.242-21.797Q123.855-21.691 123.504-21.375L123.504-21.375L123.188-21.094L122.836-20.813L122.590-20.637L122.273-20.355L122.273-20.391L121.641-19.898L121.676-19.828L121.359-19.547L121.324-19.617L121.219-19.512L121.289-19.477L121.148-19.406L121.043-19.336L120.867-19.230L120.234-18.598Q119.250-18.070 118.793-17.121L118.793-17.121L118.125-16.313Q116.367-14.941 115.770-12.973L115.770-12.973L115.348-12.234Q114.820-11.742 114.715-10.969L114.715-10.969L114.293-10.055L114.328-10.055L114.152-9.668L114.047-9.387Q113.273-7.770 113.027-6.152L113.027-6.152L112.711-4.781Q112.500-4.219 112.500-3.656L112.500-3.656L112.500-3.480L112.395-2.496Q112.289-2.250 112.289-1.969L112.289-1.969Q112.289-1.793 112.324-1.617L112.324-1.617L112.254-0.457Q112.113-0.070 112.113 0.422L112.113 0.422Q112.113 0.703 112.148 0.984L112.148 0.984Q112.184 1.652 112.395 2.426L112.395 2.426L112.570 3.621L112.570 3.832Q112.570 4.219 112.781 4.570L112.781 4.570L113.027 5.590Q113.027 6.188 113.344 6.926L113.344 6.926Q113.555 7.453 113.977 8.191L113.977 8.191Q114.328 8.930 114.680 9.563L114.680 9.563L114.750 9.527L114.891 9.809L114.820 9.844Q115.418 10.863 116.156 11.883L116.156 11.883Q116.719 13.043 117.492 13.500L117.492 13.500L118.230 14.273Q118.898 15.504 121.254 16.980L121.254 16.980Q123.539 18.492 124.980 18.633L124.980 18.633Q126 19.020 127.160 19.336L127.160 19.336Q128.426 19.793 129.973 20.004L129.973 20.004Q130.781 20.109 131.449 20.109L131.449 20.109Q132.258 20.109 132.855 19.969L132.855 19.969Q133.559 19.934 134.227 19.863L134.227 19.863L134.402 19.863Q135.246 19.863 136.125 19.582L136.125 19.582L136.828 19.441Q137.496 19.371 137.883 19.266L137.883 19.266Q138.516 19.090 138.867 18.809L138.867 18.809L139.887 18.422Q140.449 18.387 140.871 17.965L140.871 17.965Q141.891 17.438 142.805 16.840L142.805 16.840L143.086 16.664Q144.105 15.996 144.949 15.258L144.949 15.258L144.949 15.188L145.160 15.012L145.195 15.047L145.652 14.625L145.582 14.660L145.582 14.625L145.793 14.449L145.863 14.414Q147.234 13.113 148.359 11.531L148.359 11.531L148.324 11.496L148.500 11.250L148.535 11.320Q148.992 10.582 149.484 9.738L149.484 9.738Q149.730 9.457 149.836 9.070L149.836 9.070Q150.258 8.262 150.539 7.594L150.539 7.594L150.469 7.488L150.504 7.418L150.609 7.453Q150.820 6.926 151.031 6.223L151.031 6.223Q151.488 5.414 151.594 4.359L151.594 4.359L151.629 4.184L151.594 4.148Q151.594 3.867 151.699 3.621L151.699 3.621L151.734 3.621L151.770 3.340Q152.227 2.391 152.262 0.703L152.262 0.703L152.262 0.105Q152.262-1.055 152.051-2.004L152.051-2.004L152.121-2.004L152.121-2.883Q152.156-3.129 152.156-3.340L152.156-3.340Q152.156-3.586 152.121-3.832L152.121-3.832L152.121-5.801Q152.156-6.188 152.156-6.469L152.156-6.469Q152.156-6.750 152.121-6.926L152.121-6.926L152.121-9.246Q152.191-9.914 152.191-10.406L152.191-10.406Q152.191-10.934 152.121-11.285L152.121-11.285L152.121-11.953Q152.227-12.586 152.227-13.113L152.227-13.113Q152.227-13.676 152.121-14.133L152.121-14.133L152.121-18.738L152.016-18.633L151.980-18.949Q152.016-18.949 152.121-18.879L152.121-18.879L152.121-19.863L153.738-19.863Q153.949-19.828 154.160-19.828L154.160-19.828Q154.371-19.828 154.582-19.863L154.582-19.863L157.500-19.863Q158.344-19.688 159.609-19.688L159.609-19.688Q160.734-19.723 161.719-19.898L161.719-19.898L161.719-19.863L162.598-19.863Q162.809-19.828 162.984-19.828L162.984-19.828Q163.160-19.828 163.336-19.863L163.336-19.863L164.074-19.863L164.074-19.723L164.180-19.898Q164.250-19.828 164.250-19.723L164.250-19.723Q164.250-19.547 164.109-19.301L164.109-19.301L164.074-19.336L164.074-19.266Q163.969-19.055 163.969-18.809L163.969-18.809Q163.969-18.563 164.074-18.316L164.074-18.316L164.074-18.070L164.145-18.141Q164.180-17.789 164.180-17.402L164.180-17.402L164.074-17.402L164.074-15.258L164.145-15.258L164.145-14.906L164.074-14.836L164.074-13.781L164.004-13.008L164.004-12.797Q164.004-12.480 164.074-12.234L164.074-12.234L164.074-9.668L164.145-9.773L164.109-9.387L164.074-9.457L164.074-9.141Q164.004-8.930 164.004-8.648L164.004-8.648Q164.004-8.367 164.074-8.016L164.074-8.016L164.074-7.488L164.109-7.488L164.074-7.453L164.109-7.418L164.109-6.996L164.074-7.031L164.074-4.641L164.145-4.605L164.145-4.500L164.074-4.465L164.074-3.164L164.004-2.250Q164.004-1.758 164.039-1.406L164.039-1.406Q164.180-0.422 164.953-0.035L164.953-0.035Q165.375 0.211 166.359 0.211L166.359 0.211L166.605 0.211Q167.027 0.211 167.520 0.141L167.520 0.141Q167.906 0.105 168.293 0.070L168.293 0.070L168.539 0.070L168.891 0Q169.559-0.070 169.875-0.668L169.875-0.668Q170.086-1.020 170.086-1.477L170.086-1.477Q170.086-1.688 170.051-1.898L170.051-1.898L170.051-3.973L170.086-4.078Q170.121-4.254 170.121-4.465L170.121-4.465Z"></path><path d="M197.086-14.625L197.086-13.043Q197.227-12.621 197.227-11.918L197.227-11.918L197.227-11.602Q197.227-11.250 197.156-10.828L197.156-10.828Q197.121-10.512 197.086-10.125L197.086-10.125L197.086-9.352L197.016-9.387L197.051-9L197.051-8.895Q197.086-8.754 197.086-8.648L197.086-8.648Q197.086-8.297 196.945-7.980L196.945-7.980L196.910-7.805Q196.770-6.961 196.488-6.152L196.488-6.152Q196.207-4.922 195.469-4.078L195.469-4.078L195.363-3.902L195.328-3.902L195.258-3.797L195.188-3.656Q194.414-2.180 192.656-1.230L192.656-1.230Q192.059-0.809 191.320-0.457L191.320-0.457Q189.809 0.563 187.840 0.563L187.840 0.563Q187.172 0.563 186.469 0.457L186.469 0.457Q185.168 0.352 183.973-0.035L183.973-0.035Q183.762-0.070 183.551-0.211L183.551-0.211L183.234-0.316L183.270-0.387L183.199-0.422L183.023-0.457L182.813-0.527Q182.320-0.773 181.828-1.055L181.828-1.055L181.898-1.090L181.582-1.301L181.547-1.266Q181.090-1.582 180.668-1.969L180.668-1.969Q180.141-2.145 179.930-2.637L179.930-2.637L179.859-2.742Q179.824-2.953 179.648-2.953L179.648-2.953Q179.121-3.586 178.664-4.289L178.664-4.289L178.664-4.324Q178.664-4.359 178.594-4.395L178.594-4.395L178.172-5.203Q177.785-5.625 177.609-6.293L177.609-6.293Q177.469-6.715 177.363-7.523L177.363-7.523L177.328-7.770Q177.117-8.367 177.117-8.965L177.117-8.965Q177.117-9.211 177.152-9.492L177.152-9.492L177.152-13.395Q176.941-14.098 176.941-15.363L176.941-15.363Q176.941-16.664 177.152-17.297L177.152-17.297L177.152-18.492L177.223-18.527L177.223-18.633L177.152-18.879L177.152-20.250Q177.082-20.672 177.082-21.023L177.082-21.023Q177.082-21.340 177.152-21.586L177.152-21.586L177.152-23.414L177.223-23.449L177.188-23.660L177.188-24.012L177.152-23.977L177.152-25.523Q177.012-26.227 177.012-27.035L177.012-27.035Q177.012-27.879 177.152-28.793L177.152-28.793L177.152-29.742L177.082-30.234L177.047-30.727L177.047-30.973Q177.047-31.430 177.152-31.711L177.152-31.711L177.152-33.891Q177.117-34.137 177.117-34.348L177.117-34.348Q177.117-34.559 177.152-34.770L177.152-34.770L177.152-35.789Q177.082-36.070 177.082-36.316L177.082-36.316Q177.082-36.563 177.152-36.809L177.152-36.809L177.152-37.195L177.223-37.125L177.223-37.406L177.152-37.301L177.152-38.391Q177.152-39.023 177.574-39.445L177.574-39.445Q178.031-39.902 178.629-39.902L178.629-39.902L179.051-39.902Q179.648-40.078 180.492-40.078L180.492-40.078L180.773-40.078Q181.934-40.043 182.426-39.656L182.426-39.656Q182.813-39.410 182.988-38.988L182.988-38.988Q183.270-38.426 183.270-37.371L183.270-37.371Q183.270-36.457 183.129-35.684L183.129-35.684L183.129-34.805Q183.164-34.594 183.164-34.348L183.164-34.348Q183.164-34.137 183.129-33.891L183.129-33.891L183.129-32.660Q183.164-32.449 183.164-32.238L183.164-32.238Q183.164-32.027 183.129-31.816L183.129-31.816L183.129-29.777Q183.305-28.934 183.305-28.090L183.305-28.090Q183.305-27.246 183.129-26.438L183.129-26.438L183.129-25.277L183.059-25.207L183.059-24.926L183.129-24.855L183.129-24.820L183.094-24.785L183.094-24.750L183.129-24.715L183.129-24.609Q183.270-24.188 183.270-23.625L183.270-23.625Q183.270-23.063 183.129-22.359L183.129-22.359L183.129-21.586Q183.480-20.109 183.480-18.563L183.480-18.563Q183.480-17.016 183.129-15.363L183.129-15.363L183.129-14.344L183.059-14.414L183.059-14.238L183.129-14.309L183.129-13.324Q183.199-12.973 183.199-12.691L183.199-12.691Q183.199-12.410 183.129-12.199L183.129-12.199L183.129-10.969L183.164-10.512L183.129-10.055L183.129-9.281Q183.234-8.508 183.656-7.805L183.656-7.805Q183.797-7.559 184.043-7.172L184.043-7.172L184.289-6.855L184.500-6.504Q184.852-6.188 185.273-5.941L185.273-5.941Q185.309-5.871 185.379-5.871L185.379-5.871L185.449-5.871L185.906-5.695Q186.645-5.625 187.383-5.520L187.383-5.520L187.875-5.590L187.734-5.520L187.980-5.590L188.262-5.695L188.965-5.977Q189.703-6.363 190.195-6.996L190.195-6.996L190.266-6.926Q190.371-7.066 190.406-7.242L190.406-7.242L190.441-7.313Q190.512-7.594 190.617-7.980L190.617-7.980L190.758-8.684Q190.898-9.563 191.109-9.984L191.109-9.984L191.109-11.742L191.039-12.059L191.004-12.340L191.004-12.480Q191.004-12.762 191.109-12.973L191.109-12.973L191.109-14.027Q191.039-14.273 191.039-14.484L191.039-14.484Q191.039-14.730 191.109-14.941L191.109-14.941L191.109-15.715L191.145-15.785Q191.039-16.207 191.039-16.523L191.039-16.523Q191.039-16.770 191.109-16.945L191.109-16.945L191.109-17.859L191.145-17.824Q191.039-18.211 191.039-18.492L191.039-18.492Q191.039-18.703 191.109-18.879L191.109-18.879L191.109-19.969Q190.934-20.320 190.934-21.129L190.934-21.129L190.934-21.410Q190.934-22.359 191.109-22.887L191.109-22.887L191.109-23.977Q191.004-24.328 191.004-24.891L191.004-24.891L191.004-25.172L191.039-25.770L191.109-26.367L191.109-32.871Q190.969-33.223 190.969-33.820L190.969-33.820L191.039-34.277L191.109-34.770L191.109-36.879Q191.039-37.125 191.039-37.406L191.039-37.406Q191.039-37.688 191.109-38.004L191.109-38.004L191.109-38.391Q191.109-38.813 191.320-39.164L191.320-39.164Q191.461-39.480 191.777-39.656L191.777-39.656Q192.164-39.902 192.586-39.902L192.586-39.902L195.574-39.902Q195.891-39.902 196.137-39.762L196.137-39.762Q196.980-39.621 197.121-38.672L197.121-38.672Q197.156-38.426 197.156-38.145L197.156-38.145L197.156-37.863L197.121-37.441L197.086-37.090L197.086-36.352L196.980-36.563L196.980-36.352Q196.980-36.141 197.016-35.930L197.016-35.930L197.086-35.895L197.086-34.559L197.051-34.523L197.051-34.383L197.086-34.348L197.086-32.906Q197.156-32.730 197.156-32.449L197.156-32.449Q197.156-32.168 197.086-31.781L197.086-31.781L197.086-31.008Q197.121-30.762 197.121-30.445L197.121-30.445Q197.121-30.129 197.086-29.777L197.086-29.777L197.086-27.914Q197.156-27.703 197.156-27.457L197.156-27.457L197.156-27.281L197.086-26.648L197.086-22.535Q196.945-22.500 196.945-22.395L196.945-22.395L196.945-22.324L197.086-22.184L197.086-20.988Q197.156-20.707 197.156-20.355L197.156-20.355L197.121-20.074L197.086-19.758L197.086-18.352Q197.121-17.859 197.121-17.402L197.121-17.402Q197.121-16.980 197.086-16.629L197.086-16.629Q197.086-15.117 197.051-15.117L197.051-15.117L197.086-14.625Z"></path><path d="M211.148-34.102L210.832-34.066Q210.691-34.066 210.516-34.102L210.516-34.102L209.953-34.102L209.813-33.961L209.813-33.574Q209.988-33.223 209.988-32.625L209.988-32.625Q209.953-32.063 209.813-31.641L209.813-31.641L209.813-30.656Q209.953-30.410 209.953-30.129L209.953-30.129Q209.953-29.883 209.813-29.602L209.813-29.602L209.813-26.297L209.988-26.156L211.184-26.156L212.027-26.227L212.801-26.332Q213.680-26.438 214.207-26.613L214.207-26.613Q215.578-27.035 216.492-28.582L216.492-28.582Q216.809-29.320 216.809-30.094L216.809-30.094Q216.809-30.902 216.422-31.746L216.422-31.746Q215.684-33.363 214.066-33.926L214.066-33.926Q213.398-34.031 212.414-34.102L212.414-34.102L212.027-34.102L212.027-34.137L211.746-34.137L211.746-34.102L211.148-34.102ZM216.598-7.418L216.914-7.734Q217.793-8.824 217.793-10.195L217.793-10.195L217.793-13.887Q217.758-14.133 217.758-14.414L217.758-14.414L217.758-15.152L217.793-15.574L217.793-16.172L217.758-16.629Q217.371-18.316 215.367-19.828L215.367-19.828L215.156-19.934L215.086-20.039Q214.910-20.145 214.559-20.145L214.559-20.145Q214.418-20.145 214.207-20.109L214.207-20.109L213.750-20.074Q213.469-20.074 213.293-20.180L213.293-20.180L211.852-20.180Q211.816-20.320 211.676-20.320L211.676-20.320Q211.605-20.320 211.500-20.250L211.500-20.250L211.430-20.215L211.465-20.180L211.078-20.180L211.148-20.215L211.254-20.250L210.867-20.285L210.973-20.180L209.813-20.180L209.813-18.633Q210.094-17.895 210.094-16.172L210.094-16.172Q210.059-14.520 209.813-13.711L209.813-13.711L209.813-11.672Q209.918-11.355 209.918-10.898L209.918-10.898L209.918-10.652Q209.918-10.195 209.813-9.633L209.813-9.633L209.813-9.105L209.777-9.141L209.777-8.719L209.813-8.789L209.813-6.363L210.023-6.188L210.094-6.152L210.129-6.223L211.184-6.223Q211.746-6.293 212.625-6.293L212.625-6.293L213.328-6.293L214.031-6.328Q215.613-6.434 216.598-7.418L216.598-7.418ZM223.875-12.199L223.875-10.441Q223.840-9.422 223.664-8.719L223.664-8.719L223.629-8.613L223.559-8.332L223.594-8.297L223.453-7.699Q223.313-6.609 222.750-5.801L222.750-5.801Q222.293-4.852 221.590-4.008L221.590-4.008Q220.535-1.969 218.145-1.230L218.145-1.230L217.617-0.984Q216.246-0.141 214.453-0.141L214.453-0.141Q213.785-0.141 213.082-0.246L213.082-0.246L212.344-0.246Q210.480 0 208.863 0L208.863 0Q207.246 0 205.910-0.246L205.910-0.246L205.559-0.246L205.594-0.281L205.453-0.281L205.488-0.246L205.348-0.246Q204.012-0.246 203.871-1.582L203.871-1.582L203.941-1.512L203.941-1.582L203.906-1.688L203.906-1.793L203.871-1.828L203.836-1.828L203.836-5.203L203.906-5.238Q203.801-5.660 203.801-6.258L203.801-6.258Q203.801-6.609 203.836-7.242L203.836-7.242L203.836-8.332Q203.766-8.859 203.730-9.316L203.730-9.316Q203.660-9.914 203.625-10.406L203.625-10.406L203.625-10.723Q203.625-11.813 203.836-12.445L203.836-12.445L203.836-13.465Q203.766-13.676 203.766-13.957L203.766-13.957Q203.766-14.273 203.871-14.660L203.871-14.660L203.836-14.625L203.836-19.688Q203.590-20.461 203.590-22.219L203.590-22.219Q203.590-23.906 203.836-24.750L203.836-24.750L203.836-26.824Q203.730-27.246 203.730-27.879L203.730-27.879Q203.766-28.371 203.836-28.969L203.836-28.969L203.836-32.977L203.871-32.977L203.871-33.047L203.906-33.152L203.941-33.152L203.941-33.223Q203.906-33.188 203.871-33.188L203.871-33.188L203.836-33.188L203.836-33.680L203.941-33.715L203.871-34.031L203.836-34.313Q203.801-34.488 203.801-34.664L203.801-34.664Q203.801-34.805 203.836-34.945L203.836-34.945L203.836-36.211L203.766-36.668L203.730-37.160L203.730-37.371Q203.730-37.793 203.836-38.074L203.836-38.074L203.836-38.602Q203.836-39.059 204.117-39.445L204.117-39.445Q204.363-39.973 205.348-40.148L205.348-40.148Q205.699-40.219 206.051-40.219L206.051-40.219Q206.438-40.219 206.824-40.113L206.824-40.113L208.090-40.113Q208.371-40.148 208.758-40.148L208.758-40.148L209.180-40.148L210.305-40.113L211.043-40.113L211.359-40.148L211.605-40.148Q211.816-40.148 211.992-40.113L211.992-40.113L212.590-40.113L213.328-40.078Q213.645-40.078 213.996-40.008L213.996-40.008Q215.051-39.832 216-39.516L216-39.516L216-39.410L216.457-39.270L216.527-39.305L217.125-39.059Q218.320-38.777 218.988-37.898L218.988-37.898Q219.691-37.336 220.289-36.633L220.289-36.633Q220.605-36.352 220.887-35.965L220.887-35.965L221.098-35.578Q221.238-35.332 221.344-35.191L221.344-35.191L221.344-35.227L221.520-34.910Q221.941-34.488 222.012-33.926L222.012-33.926Q222.223-33.398 222.363-32.906L222.363-32.906Q222.609-32.520 222.680-31.992L222.680-31.992L222.715-31.500L222.715-31.008L222.750-31.043L222.785-30.551L222.715-30.621L222.715-30.410Q222.715-30.094 222.785-29.813L222.785-29.813L222.785-29.777Q222.820-29.566 222.820-29.391L222.820-29.391Q222.820-29.039 222.680-28.688L222.680-28.688L222.504-27.879Q222.539-27.738 222.539-27.633L222.539-27.633Q222.539-27.035 222.117-26.578L222.117-26.578Q221.836-25.805 221.414-25.102L221.414-25.102Q221.168-24.574 220.395-23.660L220.395-23.660Q221.625-22.570 222.152-21.656L222.152-21.656Q222.609-20.953 222.926-20.180L222.926-20.180L222.855-20.250L222.926-20.109L222.961-20.145Q223.207-19.582 223.383-18.949L223.383-18.949Q223.664-18.527 223.664-18.035L223.664-18.035Q223.664-17.859 223.629-17.684L223.629-17.684L223.664-17.613Q223.770-17.016 223.770-16.348L223.770-16.348Q223.840-15.961 223.840-15.504L223.840-15.504Q223.840-15.047 223.770-14.555L223.770-14.555L223.770-13.922Q223.875-13.078 223.875-12.199L223.875-12.199Z"></path></g></g><g transform="translate(-206.47180423212552 -85.42187439207336) scale(2.750141253082085)" id="logomark"><g fill="#FFFFFF"><path d="M58.547 8.013l2.54-.483c.782-.149.782-1.269 0-1.418L33.17.795a6.263 6.263 0 0 0-2.34 0L2.913 6.112c-.782.149-.782 1.269 0 1.418l13.429 2.559-1.153 6.924-.149.89a1.625 1.625 0 0 0-.021.23v.026a1.78 1.78 0 0 0 .019.244 1.586 1.586 0 0 0 .416.839c.011.009.022.021.034.03.026.026.052.052.08.077.015.013.032.024.049.037.026.021.052.039.078.058.017.013.035.024.052.035l.088.05.054.028a.883.883 0 0 0 .099.045l.05.021c.045.017.09.03.136.043.007.002.013.006.021.007l4.175 1.06 2.758.7.9.23.442.112 6.366 1.618a4.737 4.737 0 0 0 2.308 0l10.094-2.564 4.548-1.155a1.564 1.564 0 0 0 1.01-.817c.146-.286.202-.616.146-.952l-.394-2.361-.396-2.368-.515-3.083 7.786-1.484 3.124-.596zM7.162 38.457c0 .576.467 1.043 1.043 1.043h47.956v-2.085H8.205c-.576 0-1.043.467-1.043 1.042zM56.161 33.245H8.205a1.043 1.043 0 0 0 0 2.085h47.956v-2.085zM56.838 50.903c0-.576-.467-1.043-1.043-1.043H7.839v2.085h47.956c.576 0 1.043-.466 1.043-1.042zM7.839 56.116h47.956a1.043 1.043 0 0 0 0-2.085H7.839v2.085z"></path><path d="M56.809 42.465H6.768c-.024 0-.046.003-.07.004a2.086 2.086 0 0 1-1.592-2.023v-8.341c0-1.15.936-2.084 2.085-2.084h50.041a2.085 2.085 0 0 0 0-4.17H7.191a6.262 6.262 0 0 0-6.255 6.255v8.341a6.261 6.261 0 0 0 6.255 6.255h50.041c.024 0 .047-.003.07-.004a2.086 2.086 0 0 1 1.592 2.023v8.341a2.087 2.087 0 0 1-2.085 2.084H6.768a2.085 2.085 0 0 0 0 4.17h50.041a6.262 6.262 0 0 0 6.255-6.255V48.72a6.261 6.261 0 0 0-6.255-6.255z"></path></g></g></svg>
