{
  "accessors": [
    {
      "bufferView": 2,
      "componentType": 5126,
      "count": 65533,
      "max": [
        -34.645408630371094,
        -52.175151824951172,
        129.30224609375
      ],
      "min": [
        -143.32345581054688,
        -68.289176940917969,
        -117.91867065429688
      ],
      "type": "VEC3"
    },
    {
      "bufferView": 2,
      "byteOffset": 786396,
      "componentType": 5126,
      "count": 65533,
      "max": [
        0.9999653697013855,
        0.99977779388427734,
        0.9999997615814209
      ],
      "min": [
        -0.99998784065246582,
        -1,
        -0.99999004602432251
      ],
      "type": "VEC3"
    },
    {
      "bufferView": 1,
      "componentType": 5126,
      "count": 65533,
      "max": [
        0.9999239444732666,
        0.99981588125228882
      ],
      "min": [
        0.00019143562531098723,
        0.49584788084030151
      ],
      "type": "VEC2"
    },
    {
      "bufferView": 0,
      "componentType": 5125,
      "count": 197448,
      "max": [
        65532
      ],
      "min": [
        0
      ],
      "type": "SCALAR"
    },
    {
      "bufferView": 2,
      "byteOffset": 1572792,
      "componentType": 5126,
      "count": 65532,
      "max": [
        -8.0812196731567383,
        -52.175151824951172,
        129.02644348144531
      ],
      "min": [
        -142.83059692382812,
        -68.207763671875,
        -118.0107421875
      ],
      "type": "VEC3"
    },
    {
      "bufferView": 2,
      "byteOffset": 2359176,
      "componentType": 5126,
      "count": 65532,
      "max": [
        0.99998819828033447,
        0.9996572732925415,
        0.99997830390930176
      ],
      "min": [
        -0.99997788667678833,
        -0.99999994039535522,
        -0.999958336353302
      ],
      "type": "VEC3"
    },
    {
      "bufferView": 1,
      "byteOffset": 524264,
      "componentType": 5126,
      "count": 65532,
      "max": [
        0.99991422891616821,
        0.9998166561126709
      ],
      "min": [
        0.00018892376101575792,
        0.49571806192398071
      ],
      "type": "VEC2"
    },
    {
      "bufferView": 0,
      "byteOffset": 789792,
      "componentType": 5125,
      "count": 159765,
      "max": [
        65531
      ],
      "min": [
        0
      ],
      "type": "SCALAR"
    },
    {
      "bufferView": 2,
      "byteOffset": 3145560,
      "componentType": 5126,
      "count": 65534,
      "max": [
        6.5103225708007812,
        -52.217910766601562,
        128.90452575683594
      ],
      "min": [
        -74.106918334960938,
        -70.736152648925781,
        -117.68175506591797
      ],
      "type": "VEC3"
    },
    {
      "bufferView": 2,
      "byteOffset": 3931968,
      "componentType": 5126,
      "count": 65534,
      "max": [
        0.99999725818634033,
        0.99985587596893311,
        0.99999725818634033
      ],
      "min": [
        -0.99998819828033447,
        -0.99999970197677612,
        -0.99999773502349854
      ],
      "type": "VEC3"
    },
    {
      "bufferView": 1,
      "byteOffset": 1048520,
      "componentType": 5126,
      "count": 65534,
      "max": [
        0.9999239444732666,
        0.99981671571731567
      ],
      "min": [
        0.00018917185661848634,
        0.49567496776580811
      ],
      "type": "VEC2"
    },
    {
      "bufferView": 0,
      "byteOffset": 1428852,
      "componentType": 5125,
      "count": 139341,
      "max": [
        65533
      ],
      "min": [
        0
      ],
      "type": "SCALAR"
    },
    {
      "bufferView": 2,
      "byteOffset": 4718376,
      "componentType": 5126,
      "count": 65534,
      "max": [
        23.317974090576172,
        -51.979389190673828,
        128.75607299804688
      ],
      "min": [
        -73.859390258789062,
        -98.402198791503906,
        -118.14329528808594
      ],
      "type": "VEC3"
    },
    {
      "bufferView": 2,
      "byteOffset": 5504784,
      "componentType": 5126,
      "count": 65534,
      "max": [
        0.9999961256980896,
        0.99996870756149292,
        0.99999678134918213
      ],
      "min": [
        -0.99999690055847168,
        -1,
        -0.9999842643737793
      ],
      "type": "VEC3"
    },
    {
      "bufferView": 1,
      "byteOffset": 1572792,
      "componentType": 5126,
      "count": 65534,
      "max": [
        0.99992388486862183,
        0.99981683492660522
      ],
      "min": [
        0.00018376052321400493,
        0.49579375982284546
      ],
      "type": "VEC2"
    },
    {
      "bufferView": 0,
      "byteOffset": 1986216,
      "componentType": 5125,
      "count": 141558,
      "max": [
        65533
      ],
      "min": [
        0
      ],
      "type": "SCALAR"
    },
    {
      "bufferView": 2,
      "byteOffset": 6291192,
      "componentType": 5126,
      "count": 65532,
      "max": [
        17.032772064208984,
        -51.979389190673828,
        128.77644348144531
      ],
      "min": [
        -37.031101226806641,
        -107.62147521972656,
        -118.12287139892578
      ],
      "type": "VEC3"
    },
    {
      "bufferView": 2,
      "byteOffset": 7077576,
      "componentType": 5126,
      "count": 65532,
      "max": [
        0.9999968409538269,
        0.99979925155639648,
        0.99999439716339111
      ],
      "min": [
        -0.99999290704727173,
        -1,
        -0.99998635053634644
      ],
      "type": "VEC3"
    },
    {
      "bufferView": 1,
      "byteOffset": 2097064,
      "componentType": 5126,
      "count": 65532,
      "max": [
        0.99992793798446655,
        0.99981677532196045
      ],
      "min": [
        0.00018994291895069182,
        0.49573618173599243
      ],
      "type": "VEC2"
    },
    {
      "bufferView": 0,
      "byteOffset": 2552448,
      "componentType": 5125,
      "count": 136806,
      "max": [
        65531
      ],
      "min": [
        0
      ],
      "type": "SCALAR"
    },
    {
      "bufferView": 2,
      "byteOffset": 7863960,
      "componentType": 5126,
      "count": 65532,
      "max": [
        63.785911560058594,
        -51.471084594726562,
        128.64476013183594
      ],
      "min": [
        -36.851436614990234,
        -107.29217529296875,
        -118.28000640869141
      ],
      "type": "VEC3"
    },
    {
      "bufferView": 2,
      "byteOffset": 8650344,
      "componentType": 5126,
      "count": 65532,
      "max": [
        0.99997568130493164,
        0.99999672174453735,
        0.9999929666519165
      ],
      "min": [
        -0.99999046325683594,
        -1,
        -0.99999827146530151
      ],
      "type": "VEC3"
    },
    {
      "bufferView": 1,
      "byteOffset": 2621320,
      "componentType": 5126,
      "count": 65532,
      "max": [
        0.99991434812545776,
        0.99981486797332764
      ],
      "min": [
        0.00020442203094717115,
        0.49570542573928833
      ],
      "type": "VEC2"
    },
    {
      "bufferView": 0,
      "byteOffset": 3099672,
      "componentType": 5125,
      "count": 161376,
      "max": [
        65531
      ],
      "min": [
        0
      ],
      "type": "SCALAR"
    },
    {
      "bufferView": 2,
      "byteOffset": 9436728,
      "componentType": 5126,
      "count": 65532,
      "max": [
        54.548191070556641,
        -51.643283843994141,
        128.49745178222656
      ],
      "min": [
        -7.1983518600463867,
        -76.733314514160156,
        -118.42359924316406
      ],
      "type": "VEC3"
    },
    {
      "bufferView": 2,
      "byteOffset": 10223112,
      "componentType": 5126,
      "count": 65532,
      "max": [
        0.9999879002571106,
        0.99982661008834839,
        0.9999924898147583
      ],
      "min": [
        -0.99999427795410156,
        -0.9999997615814209,
        -0.9999997615814209
      ],
      "type": "VEC3"
    },
    {
      "bufferView": 1,
      "byteOffset": 3145576,
      "componentType": 5126,
      "count": 65532,
      "max": [
        0.99986159801483154,
        0.99981647729873657
      ],
      "min": [
        0.00018532868125475943,
        0.49569177627563477
      ],
      "type": "VEC2"
    },
    {
      "bufferView": 0,
      "byteOffset": 3745176,
      "componentType": 5125,
      "count": 126102,
      "max": [
        65531
      ],
      "min": [
        0
      ],
      "type": "SCALAR"
    },
    {
      "bufferView": 2,
      "byteOffset": 11009496,
      "componentType": 5126,
      "count": 65532,
      "max": [
        104.27829742431641,
        -51.180885314941406,
        128.38735961914062
      ],
      "min": [
        21.996938705444336,
        -70.801803588867188,
        -118.31383514404297
      ],
      "type": "VEC3"
    },
    {
      "bufferView": 2,
      "byteOffset": 11795880,
      "componentType": 5126,
      "count": 65532,
      "max": [
        0.99999845027923584,
        0.99997860193252563,
        0.9999968409538269
      ],
      "min": [
        -0.99999856948852539,
        -0.99999982118606567,
        -0.99998015165328979
      ],
      "type": "VEC3"
    },
    {
      "bufferView": 1,
      "byteOffset": 3669832,
      "componentType": 5126,
      "count": 65532,
      "max": [
        0.99991655349731445,
        0.99981606006622314
      ],
      "min": [
        0.00018445840396452695,
        0.49567317962646484
      ],
      "type": "VEC2"
    },
    {
      "bufferView": 0,
      "byteOffset": 4249584,
      "componentType": 5125,
      "count": 148656,
      "max": [
        65531
      ],
      "min": [
        0
      ],
      "type": "SCALAR"
    },
    {
      "bufferView": 2,
      "byteOffset": 12582264,
      "componentType": 5126,
      "count": 65532,
      "max": [
        119.46767425537109,
        -51.211750030517578,
        128.35060119628906
      ],
      "min": [
        29.783037185668945,
        -65.930221557617188,
        -118.71823120117188
      ],
      "type": "VEC3"
    },
    {
      "bufferView": 2,
      "byteOffset": 13368648,
      "componentType": 5126,
      "count": 65532,
      "max": [
        0.99999570846557617,
        0.99996745586395264,
        0.99999892711639404
      ],
      "min": [
        -0.99996024370193481,
        -1,
        -0.99998795986175537
      ],
      "type": "VEC3"
    },
    {
      "bufferView": 1,
      "byteOffset": 4194088,
      "componentType": 5126,
      "count": 65532,
      "max": [
        0.9999268651008606,
        0.99981558322906494
      ],
      "min": [
        0.00018322204414289445,
        0.49572145938873291
      ],
      "type": "VEC2"
    },
    {
      "bufferView": 0,
      "byteOffset": 4844208,
      "componentType": 5125,
      "count": 153972,
      "max": [
        65531
      ],
      "min": [
        0
      ],
      "type": "SCALAR"
    },
    {
      "bufferView": 2,
      "byteOffset": 14155032,
      "componentType": 5126,
      "count": 65534,
      "max": [
        119.3994140625,
        -51.180885314941406,
        128.30616760253906
      ],
      "min": [
        54.536403656005859,
        -67.93634033203125,
        -118.73373413085938
      ],
      "type": "VEC3"
    },
    {
      "bufferView": 2,
      "byteOffset": 14941440,
      "componentType": 5126,
      "count": 65534,
      "max": [
        0.99998807907104492,
        0.9999312162399292,
        0.99998766183853149
      ],
      "min": [
        -0.99997955560684204,
        -1,
        -0.99996787309646606
      ],
      "type": "VEC3"
    },
    {
      "bufferView": 1,
      "byteOffset": 4718344,
      "componentType": 5126,
      "count": 65534,
      "max": [
        0.99992746114730835,
        0.99981677532196045
      ],
      "min": [
        0.00018322204414289445,
        0.49574369192123413
      ],
      "type": "VEC2"
    },
    {
      "bufferView": 0,
      "byteOffset": 5460096,
      "componentType": 5125,
      "count": 146706,
      "max": [
        65533
      ],
      "min": [
        0
      ],
      "type": "SCALAR"
    },
    {
      "bufferView": 2,
      "byteOffset": 15727848,
      "componentType": 5126,
      "count": 7817,
      "max": [
        118.49209594726562,
        -51.289520263671875,
        127.94037628173828
      ],
      "min": [
        55.065334320068359,
        -66.71575927734375,
        -118.51739501953125
      ],
      "type": "VEC3"
    },
    {
      "bufferView": 2,
      "byteOffset": 15821652,
      "componentType": 5126,
      "count": 7817,
      "max": [
        0.9997560977935791,
        0.99901121854782104,
        0.99992573261260986
      ],
      "min": [
        -0.99994409084320068,
        -0.9999997615814209,
        -0.99994206428527832
      ],
      "type": "VEC3"
    },
    {
      "bufferView": 1,
      "byteOffset": 5242616,
      "componentType": 5126,
      "count": 7817,
      "max": [
        0.99942857027053833,
        0.99981564283370972
      ],
      "min": [
        0.00019314076052978635,
        0.49587452411651611
      ],
      "type": "VEC2"
    },
    {
      "bufferView": 0,
      "byteOffset": 6046920,
      "componentType": 5125,
      "count": 11373,
      "max": [
        7816
      ],
      "min": [
        0
      ],
      "type": "SCALAR"
    }
  ],
  "asset": {
    "extras": {
      "author": "dekahobby (https://sketchfab.com/dekahobby)",
      "license": "CC-BY-4.0 (http://creativecommons.org/licenses/by/4.0/)",
      "source": "https://sketchfab.com/3d-models/bajra-sandhi-monument-bali-5712e6f13e1046c790f187bdb61b454c",
      "title": "Bajra Sandhi Monument - Bali"
    },
    "generator": "Sketchfab-8.84.0",
    "version": "2.0"
  },
  "bufferViews": [
    {
      "buffer": 0,
      "byteLength": 6092412,
      "byteOffset": 0,
      "name": "floatBufferViews",
      "target": 34963
    },
    {
      "buffer": 0,
      "byteLength": 5305152,
      "byteOffset": 6092412,
      "byteStride": 8,
      "name": "floatBufferViews",
      "target": 34962
    },
    {
      "buffer": 0,
      "byteLength": 15915456,
      "byteOffset": 11397564,
      "byteStride": 12,
      "name": "floatBufferViews",
      "target": 34962
    }
  ],
  "buffers": [
    {
      "byteLength": 27313020,
      "uri": "scene.bin"
    }
  ],
  "images": [
    {
      "uri": "textures/Model_L20_0_baseColor.jpeg"
    },
    {
      "uri": "textures/Model_L20_0_metallicRoughness.png"
    }
  ],
  "materials": [
    {
      "doubleSided": true,
      "emissiveFactor": [
        0,
        0,
        0
      ],
      "name": "Model_L20_0",
      "pbrMetallicRoughness": {
        "baseColorFactor": [
          1,
          1,
          1,
          1
        ],
        "baseColorTexture": {
          "index": 0,
          "texCoord": 0
        },
        "metallicFactor": 0,
        "metallicRoughnessTexture": {
          "index": 1,
          "texCoord": 0
        },
        "roughnessFactor": 1
      }
    }
  ],
  "meshes": [
    {
      "primitives": [
        {
          "attributes": {
            "NORMAL": 1,
            "POSITION": 0,
            "TEXCOORD_0": 2
          },
          "indices": 3,
          "material": 0,
          "mode": 4
        }
      ]
    },
    {
      "primitives": [
        {
          "attributes": {
            "NORMAL": 5,
            "POSITION": 4,
            "TEXCOORD_0": 6
          },
          "indices": 7,
          "material": 0,
          "mode": 4
        }
      ]
    },
    {
      "primitives": [
        {
          "attributes": {
            "NORMAL": 9,
            "POSITION": 8,
            "TEXCOORD_0": 10
          },
          "indices": 11,
          "material": 0,
          "mode": 4
        }
      ]
    },
    {
      "primitives": [
        {
          "attributes": {
            "NORMAL": 13,
            "POSITION": 12,
            "TEXCOORD_0": 14
          },
          "indices": 15,
          "material": 0,
          "mode": 4
        }
      ]
    },
    {
      "primitives": [
        {
          "attributes": {
            "NORMAL": 17,
            "POSITION": 16,
            "TEXCOORD_0": 18
          },
          "indices": 19,
          "material": 0,
          "mode": 4
        }
      ]
    },
    {
      "primitives": [
        {
          "attributes": {
            "NORMAL": 21,
            "POSITION": 20,
            "TEXCOORD_0": 22
          },
          "indices": 23,
          "material": 0,
          "mode": 4
        }
      ]
    },
    {
      "primitives": [
        {
          "attributes": {
            "NORMAL": 25,
            "POSITION": 24,
            "TEXCOORD_0": 26
          },
          "indices": 27,
          "material": 0,
          "mode": 4
        }
      ]
    },
    {
      "primitives": [
        {
          "attributes": {
            "NORMAL": 29,
            "POSITION": 28,
            "TEXCOORD_0": 30
          },
          "indices": 31,
          "material": 0,
          "mode": 4
        }
      ]
    },
    {
      "primitives": [
        {
          "attributes": {
            "NORMAL": 33,
            "POSITION": 32,
            "TEXCOORD_0": 34
          },
          "indices": 35,
          "material": 0,
          "mode": 4
        }
      ]
    },
    {
      "primitives": [
        {
          "attributes": {
            "NORMAL": 37,
            "POSITION": 36,
            "TEXCOORD_0": 38
          },
          "indices": 39,
          "material": 0,
          "mode": 4
        }
      ]
    },
    {
      "primitives": [
        {
          "attributes": {
            "NORMAL": 41,
            "POSITION": 40,
            "TEXCOORD_0": 42
          },
          "indices": 43,
          "material": 0,
          "mode": 4
        }
      ]
    }
  ],
  "nodes": [
    {
      "children": [
        1
      ],
      "name": "RootNode (gltf orientation matrix)",
      "rotation": [
        -0.70710678118654746,
        -0,
        -0,
        0.70710678118654757
      ]
    },
    {
      "children": [
        2
      ],
      "matrix": [
        0.86577010154724121,
        0,
        0,
        0,
        0,
        -0.001160495647624743,
        -0.86576932748845081,
        0,
        0,
        0.86576932748845081,
        -0.001160495647624743,
        0,
        0,
        -84.791145324707031,
        -74.109565734863281,
        1
      ],
      "name": "RootNode (model correction matrix)"
    },
    {
      "children": [
        3,
        4,
        5,
        6,
        7,
        8,
        9,
        10,
        11,
        12,
        13
      ],
      "name": "Model_L20.obj.cleaner.materialmerger.gles"
    },
    {
      "mesh": 0,
      "name": ""
    },
    {
      "mesh": 1,
      "name": ""
    },
    {
      "mesh": 2,
      "name": ""
    },
    {
      "mesh": 3,
      "name": ""
    },
    {
      "mesh": 4,
      "name": ""
    },
    {
      "mesh": 5,
      "name": ""
    },
    {
      "mesh": 6,
      "name": ""
    },
    {
      "mesh": 7,
      "name": ""
    },
    {
      "mesh": 8,
      "name": ""
    },
    {
      "mesh": 9,
      "name": ""
    },
    {
      "mesh": 10,
      "name": ""
    }
  ],
  "samplers": [
    {
      "magFilter": 9729,
      "minFilter": 9987,
      "wrapS": 10497,
      "wrapT": 10497
    }
  ],
  "scene": 0,
  "scenes": [
    {
      "name": "OSG_Scene",
      "nodes": [
        0
      ]
    }
  ],
  "textures": [
    {
      "sampler": 0,
      "source": 0
    },
    {
      "sampler": 0,
      "source": 1
    }
  ]
}

