{
  "accessors": [
    {
      "bufferView": 2,
      "componentType": 5126,
      "count": 65532,
      "max": [
        477.81756591796875,
        482.6317138671875,
        454.37417602539062
      ],
      "min": [
        -486.3363037109375,
        -483.303466796875,
        -45.687477111816406
      ],
      "type": "VEC3"
    },
    {
      "bufferView": 2,
      "byteOffset": 786384,
      "componentType": 5126,
      "count": 65532,
      "max": [
        0.99961870908737183,
        0.99990987777709961,
        0.99999994039535522
      ],
      "min": [
        -0.99997562170028687,
        -0.99990439414978027,
        -0.37077423930168152
      ],
      "type": "VEC3"
    },
    {
      "bufferView": 1,
      "componentType": 5126,
      "count": 65532,
      "max": [
        0,
        0
      ],
      "min": [
        0,
        0
      ],
      "type": "VEC2"
    },
    {
      "bufferView": 0,
      "componentType": 5125,
      "count": 379248,
      "max": [
        65531
      ],
      "min": [
        0
      ],
      "type": "SCALAR"
    },
    {
      "bufferView": 2,
      "byteOffset": 1572768,
      "componentType": 5126,
      "count": 65532,
      "max": [
        483.51092529296875,
        483.45785522460938,
        451.8167724609375
      ],
      "min": [
        -484.8162841796875,
        -483.83624267578125,
        -439.79464721679688
      ],
      "type": "VEC3"
    },
    {
      "bufferView": 2,
      "byteOffset": 2359152,
      "componentType": 5126,
      "count": 65532,
      "max": [
        0.99999046325683594,
        0.99998492002487183,
        0.99992948770523071
      ],
      "min": [
        -0.99983042478561401,
        -0.99999064207077026,
        -0.99942755699157715
      ],
      "type": "VEC3"
    },
    {
      "bufferView": 1,
      "byteOffset": 524256,
      "componentType": 5126,
      "count": 65532,
      "max": [
        0,
        0
      ],
      "min": [
        0,
        0
      ],
      "type": "VEC2"
    },
    {
      "bufferView": 0,
      "byteOffset": 1516992,
      "componentType": 5125,
      "count": 355191,
      "max": [
        65531
      ],
      "min": [
        0
      ],
      "type": "SCALAR"
    },
    {
      "bufferView": 2,
      "byteOffset": 3145536,
      "componentType": 5126,
      "count": 11853,
      "max": [
        481.39175415039062,
        482.66140747070312,
        449.05810546875
      ],
      "min": [
        -484.88616943359375,
        -482.60040283203125,
        -446.84002685546875
      ],
      "type": "VEC3"
    },
    {
      "bufferView": 2,
      "byteOffset": 3287772,
      "componentType": 5126,
      "count": 11853,
      "max": [
        0.99995863437652588,
        0.99998492002487183,
        0.99998503923416138
      ],
      "min": [
        -0.99997562170028687,
        -0.9997715950012207,
        -0.99996888637542725
      ],
      "type": "VEC3"
    },
    {
      "bufferView": 1,
      "byteOffset": 1048512,
      "componentType": 5126,
      "count": 11853,
      "max": [
        0,
        0
      ],
      "min": [
        0,
        0
      ],
      "type": "VEC2"
    },
    {
      "bufferView": 0,
      "byteOffset": 2937756,
      "componentType": 5125,
      "count": 36273,
      "max": [
        11852
      ],
      "min": [
        0
      ],
      "type": "SCALAR"
    }
  ],
  "asset": {
    "extras": {
      "author": "Ignazio Pillitteri (https://sketchfab.com/gnaz)",
      "license": "CC-BY-ND-4.0 (http://creativecommons.org/licenses/by-nd/4.0/)",
      "source": "https://sketchfab.com/3d-models/asteroid-ceres-f57c49e7eb90439c97064d2ddea09d25",
      "title": "Asteroid: Ceres"
    },
    "generator": "Sketchfab-6.87.0",
    "version": "2.0"
  },
  "bufferViews": [
    {
      "buffer": 0,
      "byteLength": 3082848,
      "byteOffset": 0,
      "name": "floatBufferViews",
      "target": 34963
    },
    {
      "buffer": 0,
      "byteLength": 1143336,
      "byteOffset": 3082848,
      "byteStride": 8,
      "name": "floatBufferViews",
      "target": 34962
    },
    {
      "buffer": 0,
      "byteLength": 3430008,
      "byteOffset": 4226184,
      "byteStride": 12,
      "name": "floatBufferViews",
      "target": 34962
    }
  ],
  "buffers": [
    {
      "byteLength": 7656192,
      "uri": "scene.bin"
    }
  ],
  "images": [
    {
      "uri": "textures/Scene_-_Root_emissive.png"
    }
  ],
  "materials": [
    {
      "doubleSided": false,
      "emissiveFactor": [
        0.99378881987577627,
        0.99378881987577627,
        0.99378881987577627
      ],
      "emissiveTexture": {
        "index": 0,
        "texCoord": 0
      },
      "name": "Scene_-_Root",
      "pbrMetallicRoughness": {
        "baseColorFactor": [
          0.50009715691213485,
          0.46560485072663654,
          0.46560485072663654,
          1
        ],
        "metallicFactor": 0,
        "roughnessFactor": 0
      }
    }
  ],
  "meshes": [
    {
      "primitives": [
        {
          "attributes": {
            "NORMAL": 1,
            "POSITION": 0,
            "TEXCOORD_0": 2
          },
          "indices": 3,
          "material": 0,
          "mode": 4
        }
      ]
    },
    {
      "primitives": [
        {
          "attributes": {
            "NORMAL": 5,
            "POSITION": 4,
            "TEXCOORD_0": 6
          },
          "indices": 7,
          "material": 0,
          "mode": 4
        }
      ]
    },
    {
      "primitives": [
        {
          "attributes": {
            "NORMAL": 9,
            "POSITION": 8,
            "TEXCOORD_0": 10
          },
          "indices": 11,
          "material": 0,
          "mode": 4
        }
      ]
    }
  ],
  "nodes": [
    {
      "children": [
        1
      ],
      "name": "RootNode (gltf orientation matrix)",
      "rotation": [
        -0.70710678118654746,
        -0,
        -0,
        0.70710678118654757
      ]
    },
    {
      "children": [
        2
      ],
      "name": "RootNode (model correction matrix)"
    },
    {
      "children": [
        3,
        4,
        5
      ],
      "name": "Geode"
    },
    {
      "mesh": 0,
      "name": ""
    },
    {
      "mesh": 1,
      "name": ""
    },
    {
      "mesh": 2,
      "name": ""
    }
  ],
  "samplers": [
    {
      "magFilter": 9729,
      "minFilter": 9987,
      "wrapS": 10497,
      "wrapT": 10497
    }
  ],
  "scene": 0,
  "scenes": [
    {
      "name": "OSG_Scene",
      "nodes": [
        0
      ]
    }
  ],
  "textures": [
    {
      "sampler": 0,
      "source": 0
    }
  ]
}

